<svg xmlns="http://www.w3.org/2000/svg" viewBox="0 0 524.9 111.2" shape-rendering="geometricPrecision"><style>.a{fill:#FFF;}</style><path d="M74.4 77.8c0 7-3.6 12.4-9.5 12.4 -3.8 0-6.1-3.3-6.1-8 0-9.7 12-10.2 15.7-10.3V77.8zM74.4 94.6h10.2V63.5c0-10.1-2.3-17.6-16.8-17.6 -14.7 0-18.1 7.2-19.2 13.9H60.8c0-4.5 0.4-10.4 7.2-10.4 6.4 0 6.4 7.2 6.4 13.6v5.2c-6.5 0.2-26.9 1.3-26.9 15.8 0 6 5.7 11.8 13.7 11.8 7.9 0 11.4-5 13.2-7.2V94.6z" class="a"/><path d="M95.5 94.6h10.2V45.9l-18.1 3.3v2c6.2 0.2 7.9 1.9 7.9 9.1V94.6z" class="a"/><path d="M118.3 94.6h10.2V69.6c0-7.3 5.8-16.8 12.6-16.8 6.9 0 6.9 7.2 6.9 15.3V94.6h10.2V60.3c0-7.9-3.1-14.4-12.4-14.4 -10.1 0-15.6 9.5-17.1 13.1h-0.2V45.9l-18.4 3.3v2c6.4 0.2 8.2 1.9 8.2 9.1V94.6z" class="a"/><path d="M169.5 58.6v26.7c-0.1-0.9-0.1-1.8-0.1-2.8V55.6C169.5 56.5 169.5 57.5 169.5 58.6" class="a"/><path d="M205 61.4c0-3.9 2.2-12 9.8-12 8.9 0 9.1 9.6 9.1 12H205zM233.2 88.5c-1.7 0.7-5.3 1.7-9.6 1.7 -14.4 0-18.6-14.5-18.6-24.8h29.2c0-6.9-1.4-19.5-18.9-19.5 -13.7 0-21.5 7.1-21.5 23.2 0 17.1 9.4 26.6 25.1 26.6 7.1 0 12.5-2 14.4-2.8V88.5z" class="a"/><path d="M352.1 38.6l11.7 29.9h-22.6L352.1 38.6zM325.4 94.6h6.3l7.7-21.3h26.1l7.7 21.3h10.6l-25-68.9h-19.2v2.3c4.1 0.6 7.9 0.7 7.9 4.8 0 0.7-1.1 4.3-1.7 6L325.4 94.6z" class="a"/><path d="M389.2 94.6h10.2V69.6c0-7.3 5.8-16.8 12.6-16.8 6.9 0 6.9 7.2 6.9 15.3V94.6h10.2V60.3c0-7.9-3.1-14.4-12.4-14.4 -10.1 0-15.6 9.5-17.1 13.1h-0.2V45.9l-18.4 3.3v2c6.5 0.2 8.2 1.9 8.2 9.1V94.6z" class="a"/><path d="M439.9 94.6h10.2V69.6c0-7.3 5.8-16.8 12.6-16.8 6.9 0 6.9 7.2 6.9 15.3V94.6h10.2V60.3c0-7.9-3.1-14.4-12.4-14.4 -10.1 0-15.6 9.5-17.1 13.1h-0.2V45.9l-18.4 3.3v2c6.5 0.2 8.2 1.9 8.2 9.1V94.6z" class="a"/><path d="M495.7 61.4c0-3.9 2.1-12 9.8-12 8.9 0 9.1 9.6 9.1 12H495.7zM524 88.5c-1.7 0.7-5.3 1.7-9.6 1.7 -14.4 0-18.6-14.5-18.6-24.8h29.2c0-6.9-1.4-19.5-18.9-19.5 -13.7 0-21.5 7.1-21.5 23.2 0 17.1 9.4 26.6 25.1 26.6 7.1 0 12.5-2 14.4-2.8V88.5z" class="a"/><path d="M188 91.2c-6.3 0-7.9-2-8.3-6.4 -0.1-1.1-0.1-2.5-0.1-3.9v-25.3c-0.2-6 12.4-5.9 12.4-5.9v-3.2h-22.5v0h-11.8v3c5.3 0.2 11.2 1.4 11.7 6.1 0.1 0.9 0.1 17.5 0.1 18.6v11.1c0.4 3.6 1.4 6 3.2 7.6 2.6 2.4 6.8 2.9 12.3 2.9 2.2 0 4.6-0.4 6.9-0.8v-4.1C190.6 91.1 189.3 91.2 188 91.2" class="a"/><path d="M264.2 37.2c-7.7 0-12.5 5.5-18.8 5.5 -6.3 0-10.7-3.4-15.4-3.4 -1.2 0-2.4 0.2-3.6 0.8 0.8-0.2 1.6-0.2 2.4-0.2 2.9 0 5.6 1.1 8.3 2.2 2.7 1.1 5.5 2.2 8.6 2.2 0 0 0 0 0 0 6.9 0 9.5-4.1 17.7-4.2h0c3.1 0 6.5 1.3 9.7 2.6 3.2 1.3 6.3 2.6 8.9 2.6 0.4 0 0.8 0 1.2-0.1l1.6-5.1c-1.5 0.5-2.9 0.7-4.3 0.7C274.9 40.5 270.4 37.2 264.2 37.2" class="a"/><path d="M263.9 42c-6.9 0-13.6 6.3-19.1 6.3 -5.1 0-8.6-3.4-13.1-3.4 4.3 0.5 8.9 4.5 13.6 4.5 6 0 11.2-4.9 17.9-4.9 6.7 0 14.7 5.6 18.3 5.6 0.2 0 0.4 0 0.6-0.1l1.1-4.7c-0.8 0.3-1.6 0.4-2.4 0.4C276 45.8 270.3 42 263.9 42" class="a"/><path d="M263.7 47c-7.4 0-14.7 6.5-18.6 6.5 -3.7 0-5.6-2.6-8.7-2.6 -0.1 0-0.3 0-0.4 0 3.5 0.2 5.4 3.3 9.7 3.3 4.3 0 10.8-4.6 17-4.6 5.2 0 12.8 5.6 16.8 5.6 0.4 0 0.7 0 1-0.2l1.2-4.1c-0.5 0.1-1 0.1-1.5 0.1C275.4 51 269.5 47 263.7 47" class="a"/><polygon points="286.7 0 305 54.4 299.9 54.5 " class="a"/><polygon points="282.4 7.8 299.4 54.5 294.6 54.6 " class="a"/><polygon points="285.1 40.5 284.9 39.7 277.3 13.7 294.1 54.6 289.2 54.6 " class="a"/><polygon points="342.3 42 297.7 78.2 295.9 73.5 " class="a"/><polygon points="333.5 40.9 295.7 73.2 294 68.7 " class="a"/><polygon points="303.9 55 304.5 54.5 326.3 38.3 293.9 68.3 292.1 63.8 " class="a"/><polygon points="320.7 111.2 320.7 111.2 273.4 78.7 277.4 75.6 " class="a"/><polygon points="319.4 102.4 277.7 75.3 281.5 72.5 " class="a"/><polygon points="297.4 78 298.1 78.5 319.8 94.7 281.9 72.2 285.7 69.2 " class="a"/><polygon points="249.6 109.5 266.3 54.6 270.5 57.5 " class="a"/><polygon points="257.6 105.7 270.9 57.8 274.7 60.5 " class="a"/><polygon points="274.3 77.4 274 78.2 265 103.8 275.1 60.8 279.1 63.5 " class="a"/><path d="M214.3 11.6c-0.5 0.9-2 3.7-3 5.9 0 0.1 0.4 0.3 0.5 0.3 1-1.2 4.3-5.2 5-6.2 0 0 0-0.2-0.1-0.3C216.4 11.3 214.8 11.4 214.3 11.6M211.8 20.8c2.9 0 4.3 2.8 4.6 4.8 0 0.2-0.2 0.3-0.3 0.3 -1.1 0.2-7.1 0.4-8.5 0.3 0 0-0.1-0.1-0.1-0.3C207.8 22.5 209.6 20.8 211.8 20.8M219.2 32.9c-1.7 1.5-3.3 1.8-5 1.8 -2 0-3.7-0.6-5.2-2.2 -1-1.1-1.7-3.1-1.7-4.9 0-0.2 0.1-0.5 0.3-0.5 3.7-0.1 9.9-0.4 11.9-1 0.1 0 0.2-0.4 0.2-0.5 -0.5 0-0.5-0.2-0.6-0.3 -0.3-1.9-1.6-5.7-5.8-5.7 -1.1 0-3.4 0.6-4.5 1.3 -2.4 1.4-3.8 4-3.8 7.4 0 2.2 0.6 4.6 2.3 6.4 1.2 1.3 3 2 5.2 2 2 0 4.6-0.9 6.9-3.1 0-0.1 0.1-0.5 0.1-0.7C219.4 33 219.3 32.9 219.2 32.9M202.2 21.8c0-0.5 0.2-1.3 0.4-1.7 -0.5 0.1-2.6 0.2-5.1 0.2 0 0-0.2-0.1-0.2-0.2 0-2.9 0.1-4.6 0.3-5.2 0 0-0.4-0.1-0.5-0.1 -0.3 0.5-1.7 1.8-2.2 2.1v3.2c0 0 0 0.2-0.1 0.2 -0.3 0.1-1.5 0.3-2.1 0.4 0 0.1-0.4 0.8-0.4 1 0.6 0 2.1 0.1 2.4 0.2 0.1 0 0.2 0.1 0.2 0.3 0 1.7 0 5.9 0 8.2 0 2.7 0 3.8 0.5 4.7 0.7 1.3 2.1 1.8 3.4 1.8 1.4 0 2.9-0.5 3.9-1.7 0-0.1 0.1-0.7 0.1-0.7 -0.6 0.4-1.3 0.7-2.6 0.7 -1.1 0-2.1-0.5-2.6-1.4 -0.1-0.3-0.3-1-0.3-2.4 0-1.9 0-6.7 0-9.2 0-0.1 0.1-0.3 0.2-0.3C199 21.8 200.8 21.8 202.2 21.8M189.4 35.8c-1-0.1-1.3-0.2-1.8-0.3 -0.6-0.2-1-0.6-1-1.4 0-2.1 0-5 0-7.3 0-2.6 0-5.9 0.1-7.1 -1.5 0.7-3.4 1.1-4.8 1.2 0 0.1-0.1 0.5 0 0.6 0.8 0.2 1.5 0.3 2 0.8 0.2 0.3 0.2 0.5 0.2 0.8 0 0.7 0 2.1 0 3.8 0 2.4 0 5.9-0.1 6.9 -0.1 1.3-0.3 1.5-0.8 1.7 -0.5 0.2-1.2 0.3-1.9 0.4 -0.1 0.1-0.1 0.5 0 0.6 0.6 0 2.2-0.1 4-0.1 1.3 0 3.2 0.1 4 0.1C189.3 36.4 189.4 35.9 189.4 35.8M186.6 13.6c0-0.2-0.1-0.6-0.4-0.8 -0.1-0.1-0.5-0.3-1-0.3 -0.5 0-1.2 0.3-1.5 0.6 -0.2 0.2-0.2 0.5-0.2 0.8 0 0.7 0.4 1.2 0.9 1.4 0.3 0.1 1.2 0 1.4-0.1C186.2 15 186.6 14.4 186.6 13.6M176.7 20c-0.2 0-1-0.1-1.5-0.2 -0.7-0.1-1.5-0.2-2.5-0.2 -3.9 0-6 2.1-6 4.5 0 2 1 3.5 4.7 5.3 2.6 1.3 3.4 2.2 3.4 3.8 0 1.6-1.4 2.7-3.2 2.7 -0.6 0-1.3-0.1-2-0.4 -1.1-0.5-2.2-1.5-2.8-3.9 -0.1-0.1-0.7 0-0.7 0.2 0 0.8 0.3 3.4 0.7 4.2 1.1 0.5 2.9 0.8 4.2 0.8 3.7 0 6.3-2.1 6.3-4.8 0-1.9-0.8-3.1-4.5-4.8 -3.2-1.5-3.7-2.5-3.7-4 0-1.8 1.5-2.7 2.9-2.7 0.7 0 1.4 0.1 2.1 0.4 0.9 0.4 1.3 1.2 1.5 3.2 0.1 0.1 0.7 0.1 0.7 0C176.2 22.5 176.3 21.5 176.7 20M161.9 19.7c-0.8 0-1.5 0.3-2.2 0.8 -1.1 0.8-2 1.8-2.8 2.8 0 0-0.2 0-0.2 0 0-0.8 0-2.7 0-3.5 0 0-0.1-0.1-0.2-0.1 -1 0.6-3.5 1.3-4.6 1.4 -0.1 0-0.1 0.4-0.1 0.5 2.1 0.4 2.3 1.2 2.3 1.6 0.1 0.5 0.1 1.9 0.1 3.5 0 3.2 0 7.1-0.2 7.8 -0.1 0.7-0.4 0.9-0.8 1 -0.4 0.1-1.2 0.3-1.7 0.3 -0.1 0.1-0.1 0.5 0 0.6 0.7 0 3.1-0.1 4.2-0.1 1.5 0 3.7 0.1 4.2 0.1 0.1-0.1 0.2-0.5 0.1-0.6 -0.8 0-1.6-0.1-2.5-0.4 -0.6-0.2-0.8-0.6-0.9-1.3 -0.1-0.9-0.1-5.4-0.1-7.9 0-0.7 0.2-1.6 0.5-2 0.7-1.1 1.5-2.1 2.6-2.1 0.7 0 1.7 0.3 2.4 1l0.3-0.1c0.4-0.4 1.1-1.5 1.2-1.9 0-0.2 0-0.5 0-0.6C163.3 20 162.6 19.7 161.9 19.7M140.3 20.8c2.9 0 4.3 2.8 4.6 4.8 0 0.2-0.2 0.3-0.3 0.3 -1.1 0.2-7.1 0.4-8.5 0.3 0 0-0.1-0.1-0.1-0.3C136.2 22.5 138.1 20.8 140.3 20.8M147.7 32.9c-1.7 1.5-3.3 1.8-5 1.8 -2 0-3.7-0.6-5.2-2.2 -1-1.1-1.7-3.1-1.7-4.9 0-0.2 0.1-0.5 0.3-0.5 3.7-0.1 9.9-0.4 11.9-1 0.1 0 0.2-0.4 0.2-0.5 -0.5 0-0.5-0.2-0.6-0.3 -0.3-1.9-1.6-5.7-5.8-5.7 -1.1 0-3.4 0.6-4.5 1.3 -2.4 1.4-3.8 4-3.8 7.4 0 2.2 0.6 4.6 2.3 6.4 1.2 1.3 3 2 5.2 2 2 0 4.6-0.9 6.9-3.1 0-0.1 0.1-0.5 0.1-0.7C147.8 33 147.7 32.9 147.7 32.9M113 20.8c0.6 0.1 1.1 0.1 1.6 0.3 1.2 0.4 1.2 0.8 2.3 3.4 0.8 1.9 2.6 6 3.7 9 0.5 1.3 0.8 2.1 1.1 3.2 0.3-0.1 0.7-0.1 1.2-0.1 0.3-0.8 0.6-1.8 1.3-3.5 1.5-3.5 3.5-8.3 4.6-10.5 0.3-0.7 0.7-1.2 1.5-1.4 0.5-0.2 1.1-0.2 1.6-0.3 0.1-0.1 0.1-0.6 0-0.6 -0.4 0-2.1 0.1-3.2 0.1 -1.6 0-3.2-0.1-3.8-0.1 -0.1 0.1-0.2 0.5-0.1 0.6 0.7 0.1 1.4 0.2 2.1 0.4 0.5 0.2 0.7 0.4 0.2 2.1 -0.5 1.7-2.7 7.2-3.7 9.4 0 0-0.1 0.1-0.2 0 -0.2-0.4-3.9-9.1-4.4-11 0-0.1-0.1-0.5 0.2-0.6 0.3-0.1 1-0.3 1.8-0.4 0-0.1 0.1-0.5 0-0.6 -0.8 0-2.1 0.1-3.8 0.1 -1.1 0-3.3-0.1-3.8-0.1C113 20.2 112.9 20.7 113 20.8M112.1 35.8c-1-0.1-1.3-0.2-1.8-0.3 -0.6-0.2-1-0.6-1-1.4 0-2.1 0-5 0-7.3 0-2.6 0-5.9 0.1-7.1 -1.6 0.7-3.4 1.1-4.8 1.2 0 0.1-0.1 0.5 0 0.6 0.8 0.2 1.5 0.3 2 0.8 0.2 0.3 0.2 0.5 0.2 0.8 0 0.7 0 2.1 0 3.8 0 2.4 0 5.9-0.1 6.9 -0.1 1.3-0.3 1.5-0.8 1.7 -0.5 0.2-1.2 0.3-1.9 0.4 -0.1 0.1-0.1 0.5 0 0.6 0.6 0 2.2-0.1 4-0.1 1.3 0 3.2 0.1 4 0.1C112.1 36.4 112.1 35.9 112.1 35.8M109.4 13.6c0-0.2-0.1-0.6-0.4-0.8 -0.1-0.1-0.5-0.3-1-0.3 -0.5 0-1.2 0.3-1.5 0.6 -0.2 0.2-0.2 0.5-0.2 0.8 0 0.7 0.4 1.2 0.9 1.4 0.3 0.1 1.2 0 1.4-0.1C109 15 109.4 14.4 109.4 13.6M82.3 35.8c-0.1 0.1-0.1 0.5 0 0.6 0.6 0 1.4-0.1 3.9-0.1 2.5 0 3.6 0.1 4.1 0.1 0.1-0.1 0.1-0.6 0-0.7 -0.7-0.1-1.7-0.2-2.1-0.4 -0.5-0.2-0.7-0.5-0.7-1.7 -0.1-1.9-0.1-5.4-0.1-8.7 0-1.1 0.1-1.5 0.5-1.8 1.2-1.1 2.6-1.6 4.2-1.6 1.6 0 2.4 0.5 3.1 1.1 0.9 0.8 1.2 2.2 1.3 2.9 0.2 1.4 0.2 6.9 0.1 8.8 0 0.5-0.2 1-1 1.2 -0.3 0.1-1.1 0.2-1.9 0.3 -0.1 0.1-0.1 0.5 0 0.6 0.8 0 2.1-0.1 4.2-0.1 2.1 0 3.2 0.1 3.8 0.1 0.1-0.1 0.2-0.5 0.1-0.6 -0.7-0.1-1.3-0.2-2-0.4 -0.5-0.2-0.7-0.5-0.7-1.1 0-1.9 0-5.4 0-7.7 0-2.1-0.3-3.7-1.1-4.8 -0.9-1.3-2.2-2.1-4-2.1 -1.4 0-3.5 0.7-6.4 2.8 -0.1 0.1-0.2 0-0.2-0.2 0-0.7 0.1-1.6 0.2-2.5 0-0.1-0.1-0.2-0.1-0.2 -1.1 0.6-3.2 1.3-4.7 1.6 -0.1 0-0.2 0.5-0.1 0.5 1.8 0.5 2.1 0.6 2.2 1.2 0 0.3 0.1 1.4 0.1 3.8 0 2.8 0 5.5-0.1 7.1 0 0.7-0.2 1.4-0.9 1.6C83.5 35.6 82.9 35.7 82.3 35.8M52.5 11c0.6 0.1 1.8 0.2 2.3 0.4 1 0.3 1 1.2 1.1 2.3 0.1 2.2 0 13.3 0.3 15.8 0.6 5.1 4.2 7.7 10.6 7.7 4.5 0 9.3-1.5 10.5-7.1 0.6-2.7 0.5-4.1 0.8-15.3 0-2.5 0.4-3.1 1.5-3.4 0.5-0.1 1-0.2 1.7-0.3 0.1-0.1 0.1-0.5 0-0.6 -0.7 0-2.2 0.1-4 0.1 -2.6 0-4.2-0.1-4.8-0.1 -0.1 0.1-0.1 0.5 0 0.6 0.9 0.1 1.3 0.1 1.9 0.3 1.1 0.2 1.9 0.5 2 3.2 0.2 4.6 0 9.5-0.1 12.7 -0.3 6.7-3.8 8.3-8.2 8.3 -2.7 0-5.6-0.8-7.2-2.7 -1.1-1.1-1.6-2.6-1.8-5.7 -0.1-2.2-0.1-9.9 0-13.4 0.1-1.8 0.3-2.1 1.1-2.4 0.5-0.2 1-0.2 1.9-0.4 0.1-0.1 0.1-0.5 0-0.6 -1 0-2.5 0.1-4.4 0.1 -2 0-4.3-0.1-4.9-0.1C52.4 10.4 52.4 10.9 52.5 11" class="a"/><path d="M0.9 93.3v-12.6h2.2c0.6 4 1.5 7.8 4.3 8.4C8 89.3 0.9 93.3 0.9 93.3z" class="a"/><path d="M38.3 28.6v12.6l-2.1-0.1c-0.6-4-1.4-7.5-4.2-8.2C31.3 32.7 38.3 28.6 38.3 28.6z" class="a"/><path d="M38.3 28.6c-2.6-0.5-9.1-1.8-15.9-1.8C8.4 26.8 0 33.1 0 44c0 21 32.3 19.5 32.3 35.6 0 9.1-6.2 11.6-12.4 11.6 -8 0-11.5-1.4-14.6-3.2l-4.4 5.3c2.1 0.5 9.7 2.6 17.4 2.6 13.7 0 25-5.4 25-19.6 0-21.3-32.3-19.9-32.3-35.2 0-6.6 4.3-9.6 9.5-9.6 7.8 0 14 1.9 16.7 3.2L38.3 28.6z" class="a"/></svg>
