<?xml version="1.0" encoding="UTF-8" standalone="no"?>
<!-- Generator: Adobe Illustrator 23.1.1, SVG Export Plug-In . SVG Version: 6.00 Build 0)  -->

<svg
   xmlns:dc="http://purl.org/dc/elements/1.1/"
   xmlns:cc="http://creativecommons.org/ns#"
   xmlns:rdf="http://www.w3.org/1999/02/22-rdf-syntax-ns#"
   xmlns:svg="http://www.w3.org/2000/svg"
   xmlns="http://www.w3.org/2000/svg"
   xmlns:sodipodi="http://sodipodi.sourceforge.net/DTD/sodipodi-0.dtd"
   xmlns:inkscape="http://www.inkscape.org/namespaces/inkscape"
   version="1.1"
   id="Layer_1"
   x="0px"
   y="0px"
   viewBox="0 0 208.29 78.510006"
   xml:space="preserve"
   sodipodi:docname="CBU Logo.svg"
   width="55.110062mm"
   height="20.772438mm"
   inkscape:version="0.92.1 r15371"><metadata
     id="metadata57"><rdf:RDF><cc:Work
         rdf:about=""><dc:format>image/svg+xml</dc:format><dc:type
           rdf:resource="http://purl.org/dc/dcmitype/StillImage" /><dc:title></dc:title></cc:Work></rdf:RDF></metadata><defs
     id="defs55" /><sodipodi:namedview
     pagecolor="#ffffff"
     bordercolor="#666666"
     borderopacity="1"
     objecttolerance="10"
     gridtolerance="10"
     guidetolerance="10"
     inkscape:pageopacity="0"
     inkscape:pageshadow="2"
     inkscape:window-width="1366"
     inkscape:window-height="705"
     id="namedview53"
     showgrid="false"
     fit-margin-top="0"
     fit-margin-right="0"
     fit-margin-bottom="0"
     fit-margin-left="0"
     units="mm"
     inkscape:zoom="0.35858586"
     inkscape:cx="155.81916"
     inkscape:cy="8.3900011"
     inkscape:window-x="-8"
     inkscape:window-y="-8"
     inkscape:window-maximized="1"
     inkscape:current-layer="Layer_1" /><style
     type="text/css"
     id="style2">
	.st0{fill:#fff;}
</style><g
     id="g50"
     transform="translate(-275.04,-235.88)"><path
       class="st0"
       d="M 310.95,295.71 310.93,272.02 287.25,272 314.49,244.47 H 283.2 v 34.21 h 0.01 c 0.34,15.02 12.62,27.1 27.73,27.1 15.1,0 27.39,-12.07 27.73,-27.1 h 0.01 V 267.7 Z"
       id="path4"
       inkscape:connector-curvature="0"
       style="fill:#fff" /><path
       class="st0"
       d="m 342.7,240.04 v 39.17 c -0.39,17.2 -14.46,31.03 -31.76,31.03 -17.29,0 -31.37,-13.82 -31.76,-31.03 v -39.17 h 63.52 m 4.15,-4.16 h -4.15 -63.51 -4.15 v 4.15 39.17 0.05 0.05 c 0.21,9.42 4.04,18.24 10.79,24.84 6.75,6.61 15.67,10.25 25.12,10.25 9.45,0 18.37,-3.64 25.12,-10.25 6.74,-6.6 10.57,-15.42 10.79,-24.84 v -0.05 -0.05 -39.17 -4.15 z"
       id="path6"
       inkscape:connector-curvature="0"
       style="fill:#fff" /><g
       id="g48"><path
         class="st0"
         d="m 374.26,253.15 c -0.98,1.01 -3.02,2.63 -6.96,2.63 -5.67,0 -10.12,-3.74 -10.12,-9.95 0,-6.23 4.5,-9.95 10.12,-9.95 3.97,0 6.12,1.65 6.62,2.18 l -1.4,3.74 c -0.36,-0.48 -2.43,-2.01 -4.97,-2.01 -3.27,0 -5.78,2.18 -5.78,5.95 0,3.77 2.63,5.92 5.78,5.92 2.4,0 4.14,-0.95 5.2,-2.04 z"
         id="path8"
         inkscape:connector-curvature="0"
         style="fill:#fff" /><path
         class="st0"
         d="m 388.24,255.44 h -4.28 l -0.08,-1.45 c -0.59,0.59 -1.7,1.76 -3.94,1.76 -2.43,0 -5,-1.31 -5,-4.39 0,-3.07 2.82,-4.11 5.37,-4.22 l 3.47,-0.14 v -0.31 c 0,-1.45 -1.03,-2.21 -2.82,-2.21 -1.76,0 -3.52,0.78 -4.22,1.23 l -1.17,-2.91 c 1.17,-0.59 3.33,-1.4 5.9,-1.4 2.57,0 4.05,0.59 5.14,1.59 1.06,1.01 1.65,2.35 1.65,4.67 v 7.78 z m -4.45,-6.07 -2.21,0.14 c -1.37,0.06 -2.18,0.64 -2.18,1.68 0,1.06 0.87,1.7 2.1,1.7 1.2,0 2.01,-0.78 2.29,-1.26 z"
         id="path10"
         inkscape:connector-curvature="0"
         style="fill:#fff" /><path
         class="st0"
         d="m 399.51,255.75 c -2.04,0 -3.49,-0.75 -4.36,-2.04 v 6.79 h -4.47 v -18.84 h 4.25 l -0.03,1.76 h 0.06 c 1.01,-1.2 2.49,-2.01 4.58,-2.01 3.97,0 6.48,3.1 6.48,7.15 0,4.06 -2.52,7.19 -6.51,7.19 z m -1.29,-10.82 c -1.9,0 -3.21,1.45 -3.21,3.58 0,2.12 1.31,3.58 3.21,3.58 1.93,0 3.24,-1.45 3.24,-3.58 0,-2.13 -1.31,-3.58 -3.24,-3.58 z"
         id="path12"
         inkscape:connector-curvature="0"
         style="fill:#fff" /><path
         class="st0"
         d="m 421.33,249.63 h -9.81 c 0.2,1.98 1.7,2.88 3.52,2.88 1.79,0 3.35,-0.78 4.14,-1.31 l 1.76,2.32 c -0.45,0.34 -2.26,2.24 -6.54,2.24 -4.25,0 -7.35,-2.63 -7.35,-7.18 0,-4.55 3.35,-7.15 7.43,-7.15 4.08,0 6.9,2.71 6.9,6.73 0.01,0.66 -0.05,1.47 -0.05,1.47 z m -4.11,-2.55 c -0.03,-1.26 -0.95,-2.77 -2.82,-2.77 -1.84,0 -2.79,1.45 -2.85,2.77 z"
         id="path14"
         inkscape:connector-curvature="0"
         style="fill:#fff" /><path
         class="st0"
         d="m 370.99,278.36 c -1.23,0.89 -2.96,1.26 -4.95,1.26 h -7.88 v -19.28 h 6.57 c 1.76,0 3.47,0.14 4.75,0.81 1.29,0.67 2.46,1.93 2.46,4.05 0,2.12 -1.37,3.74 -2.82,4.25 v 0.06 c 2.4,0.59 4,2.21 4,4.58 -0.01,2.12 -0.9,3.37 -2.13,4.27 z m -4.45,-14.28 c -0.53,-0.34 -1.03,-0.39 -2.01,-0.39 h -1.87 v 4.44 h 1.76 c 1.01,0 1.59,-0.06 2.12,-0.42 0.56,-0.39 0.95,-0.89 0.95,-1.84 0,-0.93 -0.39,-1.46 -0.95,-1.79 z m 1.01,7.71 c -0.67,-0.48 -1.43,-0.53 -2.4,-0.53 h -2.49 v 4.92 h 2.49 c 0.98,0 1.73,-0.06 2.4,-0.53 0.67,-0.45 0.98,-1.09 0.98,-1.93 0,-0.87 -0.31,-1.45 -0.98,-1.93 z"
         id="path16"
         inkscape:connector-curvature="0"
         style="fill:#fff" /><path
         class="st0"
         d="m 384.09,269.95 h -0.2 c -0.25,-0.14 -0.84,-0.34 -1.62,-0.34 -1.01,0 -1.73,0.56 -2.07,1.01 -0.34,0.45 -0.7,1.34 -0.7,2.88 v 6.12 h -4.47 v -13.78 h 4.47 l -0.03,1.96 h 0.06 c 0.78,-1.51 1.93,-2.21 3.41,-2.21 0.92,0 1.4,0.25 1.4,0.25 z"
         id="path18"
         inkscape:connector-curvature="0"
         style="fill:#fff" /><path
         class="st0"
         d="m 398.95,273.8 h -9.81 c 0.2,1.98 1.7,2.88 3.52,2.88 1.79,0 3.35,-0.78 4.14,-1.31 l 1.76,2.32 c -0.45,0.34 -2.26,2.24 -6.54,2.24 -4.25,0 -7.35,-2.63 -7.35,-7.18 0,-4.55 3.35,-7.15 7.43,-7.15 4.08,0 6.9,2.71 6.9,6.73 0,0.66 -0.05,1.47 -0.05,1.47 z m -4.11,-2.54 c -0.03,-1.26 -0.95,-2.77 -2.82,-2.77 -1.84,0 -2.79,1.45 -2.85,2.77 z"
         id="path20"
         inkscape:connector-curvature="0"
         style="fill:#fff" /><path
         class="st0"
         d="m 408.94,269.25 h -3.05 v 4.95 c 0,1.17 0.17,1.45 0.39,1.7 0.2,0.22 0.47,0.34 1.06,0.34 0.7,0 1.34,-0.25 1.34,-0.25 l 0.22,3.49 c -0.34,0.08 -1.56,0.45 -3.19,0.45 -1.59,0 -2.65,-0.48 -3.35,-1.29 -0.7,-0.81 -0.98,-1.96 -0.98,-4.05 v -5.34 h -1.96 v -3.38 h 1.96 v -3.74 h 4.5 v 3.74 h 3.05 v 3.38 z"
         id="path22"
         inkscape:connector-curvature="0"
         style="fill:#fff" /><path
         class="st0"
         d="m 417.2,279.92 c -4.36,0 -7.66,-2.71 -7.66,-7.15 0,-4.44 3.3,-7.18 7.66,-7.18 4.36,0 7.63,2.74 7.63,7.18 0,4.44 -3.27,7.15 -7.63,7.15 z m 0,-10.81 c -1.98,0 -3.13,1.54 -3.13,3.58 0,2.04 1.15,3.58 3.13,3.58 1.96,0 3.13,-1.54 3.13,-3.58 0,-2.05 -1.17,-3.58 -3.13,-3.58 z"
         id="path24"
         inkscape:connector-curvature="0"
         style="fill:#fff" /><path
         class="st0"
         d="m 440.14,279.61 h -4.47 v -7.18 c 0,-1.82 -0.28,-3.19 -2.12,-3.19 -1.93,0 -2.46,1.56 -2.46,3.55 v 6.82 h -4.47 v -13.78 h 4.47 l -0.03,1.98 h 0.06 c 0.75,-1.23 2.01,-2.24 4,-2.24 4,0 5.03,2.57 5.03,5.9 v 8.14 z"
         id="path26"
         inkscape:connector-curvature="0"
         style="fill:#fff" /><path
         class="st0"
         d="m 374.17,295.74 c 0,2.71 -0.47,4.58 -1.84,6.06 -1.34,1.45 -3.44,2.29 -6.23,2.29 -2.82,0 -4.89,-0.84 -6.26,-2.29 -1.34,-1.48 -1.82,-3.35 -1.82,-6.06 v -11.23 h 4.56 v 11.23 c 0,1.37 0.11,2.43 0.75,3.21 0.61,0.73 1.51,1.2 2.77,1.2 1.26,0 2.15,-0.47 2.77,-1.2 0.64,-0.78 0.75,-1.84 0.75,-3.21 v -11.23 h 4.56 v 11.23 z"
         id="path28"
         inkscape:connector-curvature="0"
         style="fill:#fff" /><path
         class="st0"
         d="m 390.4,303.79 h -4.47 v -7.18 c 0,-1.82 -0.28,-3.19 -2.12,-3.19 -1.93,0 -2.46,1.56 -2.46,3.55 v 6.82 h -4.47 v -13.78 h 4.47 l -0.03,1.98 h 0.06 c 0.75,-1.23 2.01,-2.24 4,-2.24 4,0 5.03,2.57 5.03,5.9 v 8.14 z"
         id="path30"
         inkscape:connector-curvature="0"
         style="fill:#fff" /><path
         class="st0"
         d="m 395.09,288.42 c -1.51,0 -2.54,-0.92 -2.54,-2.32 0,-1.37 1.03,-2.32 2.54,-2.32 1.51,0 2.54,0.95 2.54,2.32 0.01,1.4 -1.03,2.32 -2.54,2.32 z m 2.24,15.37 h -4.47 v -13.78 h 4.47 z"
         id="path32"
         inkscape:connector-curvature="0"
         style="fill:#fff" /><path
         class="st0"
         d="m 413.81,290.01 -5.67,13.78 h -4.19 l -5.64,-13.78 h 4.67 l 3.13,8.72 3.1,-8.72 z"
         id="path34"
         inkscape:connector-curvature="0"
         style="fill:#fff" /><path
         class="st0"
         d="m 427.59,297.98 h -9.81 c 0.2,1.98 1.7,2.88 3.52,2.88 1.79,0 3.35,-0.78 4.14,-1.31 l 1.76,2.32 c -0.45,0.34 -2.26,2.24 -6.54,2.24 -4.25,0 -7.35,-2.63 -7.35,-7.18 0,-4.55 3.35,-7.15 7.43,-7.15 4.08,0 6.9,2.71 6.9,6.73 0.01,0.66 -0.05,1.47 -0.05,1.47 z m -4.1,-2.54 c -0.03,-1.26 -0.95,-2.77 -2.82,-2.77 -1.84,0 -2.79,1.45 -2.85,2.77 z"
         id="path36"
         inkscape:connector-curvature="0"
         style="fill:#fff" /><path
         class="st0"
         d="m 438.51,294.12 h -0.2 c -0.25,-0.14 -0.84,-0.34 -1.62,-0.34 -1.01,0 -1.73,0.56 -2.07,1.01 -0.34,0.45 -0.7,1.34 -0.7,2.88 v 6.12 h -4.47 v -13.78 h 4.47 l -0.03,1.96 h 0.06 c 0.78,-1.51 1.93,-2.21 3.41,-2.21 0.92,0 1.4,0.25 1.4,0.25 z"
         id="path38"
         inkscape:connector-curvature="0"
         style="fill:#fff" /><path
         class="st0"
         d="m 448.72,302.9 c -1.01,0.78 -2.38,1.2 -4.22,1.2 -2.07,0 -4.25,-0.64 -5.81,-2.12 l 1.68,-2.65 c 1.12,0.95 2.96,1.68 4.08,1.68 1.12,0 1.9,-0.28 1.9,-1.17 0,-0.89 -2.01,-1.34 -2.51,-1.51 -0.53,-0.14 -1.31,-0.36 -1.96,-0.64 -0.64,-0.28 -2.35,-1.15 -2.35,-3.6 0,-2.68 2.35,-4.33 5.23,-4.33 2.88,0 4.5,1.06 5.28,1.7 l -1.45,2.63 c -0.78,-0.61 -2.35,-1.34 -3.47,-1.34 -1.06,0 -1.65,0.28 -1.65,1.01 0,0.73 1.06,1.06 2.01,1.34 0.95,0.28 1.37,0.42 1.96,0.64 0.61,0.22 1.31,0.59 1.79,1.03 0.45,0.45 1.12,1.34 1.12,2.79 -0.01,1.41 -0.63,2.53 -1.63,3.34 z"
         id="path40"
         inkscape:connector-curvature="0"
         style="fill:#fff" /><path
         class="st0"
         d="m 454.32,288.42 c -1.51,0 -2.54,-0.92 -2.54,-2.32 0,-1.37 1.03,-2.32 2.54,-2.32 1.51,0 2.54,0.95 2.54,2.32 0.01,1.4 -1.03,2.32 -2.54,2.32 z m 2.24,15.37 h -4.47 v -13.78 h 4.47 z"
         id="path42"
         inkscape:connector-curvature="0"
         style="fill:#fff" /><path
         class="st0"
         d="m 467.39,293.42 h -3.05 v 4.95 c 0,1.17 0.17,1.45 0.39,1.7 0.2,0.22 0.48,0.34 1.06,0.34 0.7,0 1.34,-0.25 1.34,-0.25 l 0.22,3.49 c -0.34,0.08 -1.56,0.45 -3.19,0.45 -1.59,0 -2.65,-0.48 -3.35,-1.29 -0.7,-0.81 -0.98,-1.96 -0.98,-4.05 v -5.34 h -1.96 v -3.38 h 1.96 v -3.74 h 4.5 v 3.74 h 3.05 v 3.38 z"
         id="path44"
         inkscape:connector-curvature="0"
         style="fill:#fff" /><path
         class="st0"
         d="m 483.33,290.01 -6.15,15.09 c -1.01,2.46 -2.12,3.97 -4.47,3.97 -2.35,0 -3.83,-0.67 -3.83,-0.67 l 0.89,-3.3 c 0,0 0.98,0.36 1.65,0.36 0.5,0 0.98,0 1.34,-0.89 l 0.5,-1.2 -5.45,-13.36 h 4.67 l 3.13,8.86 3.1,-8.86 z"
         id="path46"
         inkscape:connector-curvature="0"
         style="fill:#fff" /></g></g></svg>