<?xml version="1.0" encoding="UTF-8" standalone="no"?>
<svg
   xmlns:dc="http://purl.org/dc/elements/1.1/"
   xmlns:cc="http://creativecommons.org/ns#"
   xmlns:rdf="http://www.w3.org/1999/02/22-rdf-syntax-ns#"
   xmlns:svg="http://www.w3.org/2000/svg"
   xmlns="http://www.w3.org/2000/svg"
   xmlns:sodipodi="http://sodipodi.sourceforge.net/DTD/sodipodi-0.dtd"
   xmlns:inkscape="http://www.inkscape.org/namespaces/inkscape"
   viewBox="0 0 653.83003 109.93311"
   version="1.1"
   id="svg82"
   sodipodi:docname="stfx-logo-text.svg"
   inkscape:version="0.92.1 r15371"
   width="653.83002"
   height="109.93311">
  <metadata
     id="metadata86">
    <rdf:RDF>
      <cc:Work
         rdf:about="">
        <dc:format>image/svg+xml</dc:format>
        <dc:type
           rdf:resource="http://purl.org/dc/dcmitype/StillImage" />
        <dc:title>stfx-logo</dc:title>
      </cc:Work>
    </rdf:RDF>
  </metadata>
  <sodipodi:namedview
     pagecolor="#ffffff"
     bordercolor="#666666"
     borderopacity="1"
     objecttolerance="10"
     gridtolerance="10"
     guidetolerance="10"
     inkscape:pageopacity="0"
     inkscape:pageshadow="2"
     inkscape:window-width="1920"
     inkscape:window-height="1017"
     id="namedview84"
     showgrid="false"
     inkscape:zoom="2.242173"
     inkscape:cx="326.915"
     inkscape:cy="54.966556"
     inkscape:window-x="-8"
     inkscape:window-y="-8"
     inkscape:window-maximized="1"
     inkscape:current-layer="svg82"
     inkscape:pagecheckerboard="true"
     fit-margin-top="0"
     fit-margin-left="0"
     fit-margin-right="0"
     fit-margin-bottom="0" />
  <defs
     id="defs4">
    <style
       id="style2">.a{fill:#bc9408;}.b{fill:#fff;}.c{fill:#002b5c;}.d{fill:#4c5b77;}</style>
  </defs>
  <title
     id="title6">stfx-logo</title>
  <path
     class="b"
     d="M 18.72,59.2 C 8.32,59.2 4,55.6 3.44,55.6 c -0.32,0 -1.6,1.6 -2.48,2.8 H 0.24 L 0,42.48 h 0.8 c 1.92,5.68 6.24,11.36 9.92,13.28 a 19.21,19.21 0 0 0 7.92,2.16 c 7.84,0 13.28,-4.72 13.28,-12 0,-6 -4.08,-8.64 -9.2,-10.56 C 17.6,33.44 15.72,33.04 10.96,31.2 5.44,29.04 0.4,23.6 0.4,16.72 0.4,5.28 9.4,0 19.6,0 c 9.6,0 13.44,3.84 13.76,3.84 0.32,0 1.6,-1.6 2.4,-2.88 h 0.88 v 14.8 H 35.76 C 33.12,8.64 27.84,1.28 19.52,1.28 c -6.72,0 -12,4 -12,11.28 0,5.6 3.84,8.88 9.2,10.88 4.32,1.68 7.28,2.48 11.44,4 7.2,2.64 11.44,7.76 11.44,15.28 0,10.29 -8.72,16.48 -20.88,16.48 z"
     id="path28"
     inkscape:connector-curvature="0"
     style="fill:#ffffff" />
  <path
     class="b"
     d="M 80.8,30.16 A 38.78,38.78 0 0 0 75.36,22 C 73.76,20.56 72,20.16 69.12,20.08 66.24,20 67.04,20 63.68,20 63.6,23.84 63.52,31.92 63.52,36.48 v 13.76 c 0,2.08 0.08,4.32 0.64,5.12 1.12,1.6 4.08,2.08 5.76,2.32 v 0.8 H 49.84 v -0.8 c 2,-0.24 3.84,-0.48 5.6,-2.4 0.72,-0.8 0.72,-3.52 0.8,-5.92 0.08,-2.08 0.08,-8.56 0.08,-12.64 0,-4.48 -0.08,-12.24 -0.08,-16.72 -3.28,0 -2.48,0 -5.44,0.08 -2.96,0.08 -4.56,0.64 -6.16,2.08 a 34.45,34.45 0 0 0 -5.44,8 l -0.65,-0.15 2.08,-12.8 c 1.6,0.56 3,1.52 5.76,1.52 h 27.28 c 2.88,0 4,-0.88 5.68,-1.52 l 2.08,12.8 z"
     id="path30"
     inkscape:connector-curvature="0"
     style="fill:#ffffff" />
  <path
     class="b"
     d="M 82,58.72 A 4.56,4.56 0 0 1 77.2,54 4.69,4.69 0 0 1 82,49.12 c 2.8,0 4.64,2.24 4.64,5 A 4.3,4.3 0 0 1 82,58.72 Z"
     id="path32"
     inkscape:connector-curvature="0"
     style="fill:#ffffff" />
  <path
     class="b"
     d="M 161.44,14.72 C 157.12,9.36 153.12,5.36 149.44,3.52 147.6,2.64 142.44,2 136.24,2 134,2 130.48,2.16 129.36,2.24 a 24.91,24.91 0 0 0 -0.72,6.16 c -0.24,7.44 -0.16,19 -0.16,20 a 70,70 0 0 0 10.32,-0.64 c 7.68,-1.6 8.48,-5.76 9.28,-11 h 1 v 25.76 h -1 c -0.88,-3.36 -2.48,-7.76 -4.72,-9.76 a 11.51,11.51 0 0 0 -7.28,-2.88 c -3.2,-0.24 -4.24,-0.16 -7.6,-0.16 0,6.88 0,13.76 0.08,17.28 0.08,3.52 0.24,6.8 1.2,8.24 0.96,1.44 3.12,2.32 7.44,2.48 v 0.8 h -25.6 v -0.8 c 2.64,-0.4 5.12,-1.36 6.56,-3 1,-1.28 1.36,-5.2 1.44,-8.64 0.08,-3 0.16,-10.72 0.16,-16.56 v -15.6 c 0,-3.76 -0.08,-8.48 -1.36,-9.84 -1.6,-1.68 -3.2,-1.92 -6.08,-2.32 v -0.8 h 44.48 l 5.44,13.44 z"
     id="path34"
     inkscape:connector-curvature="0"
     style="fill:#ffffff" />
  <path
     class="b"
     d="m 188.64,58.48 a 24.89,24.89 0 0 1 -3.12,-4.24 105.2,105.2 0 0 0 -7.36,-10.56 11.65,11.65 0 0 0 -5,-3.68 8.57,8.57 0 0 0 -2.4,-0.4 v 10.64 c 0,2.4 0.08,3.92 0.8,5.12 0.56,1 2.56,2.24 5.44,2.32 v 0.8 h -19.72 v -0.8 c 1.84,-0.24 4.24,-0.8 5.2,-2 0.88,-1 1,-3.68 1,-6.08 0,-2.08 0.08,-7.36 0.08,-11.44 v -10.8 c 0,-2.56 -0.08,-5.68 -1,-6.64 -1.2,-1.2 -2.8,-1.44 -5,-1.76 v -0.8 c 1,0 12.24,-0.08 16.48,-0.08 5.12,0 9,0.08 12.4,1.76 a 9.52,9.52 0 0 1 5.68,9 c 0,5.52 -4.48,8.8 -9.6,10.32 v 0.16 a 15.84,15.84 0 0 1 3.84,3.6 c 2,2.8 4.48,6.48 6.4,9 2.8,3.92 5.12,5.28 8.8,5.76 v 0.8 h -13 z M 179.36,20.4 a 11.43,11.43 0 0 0 -5.52,-1.2 13.81,13.81 0 0 0 -2.56,0.16 31.21,31.21 0 0 0 -0.32,4.24 c -0.16,5.2 -0.16,12.56 -0.16,15 a 22.88,22.88 0 0 0 7.52,-0.8 c 4.56,-1.6 6.16,-5.2 6.16,-9.28 a 8.65,8.65 0 0 0 -5.12,-8.12 z"
     id="path36"
     inkscape:connector-curvature="0"
     style="fill:#ffffff" />
  <path
     class="b"
     d="m 221.44,58.48 v -0.8 c 1.6,-0.24 4.48,-0.64 4.48,-2.56 0,-1.44 -1.68,-6 -3.84,-11.84 h -14.72 c -1,2.72 -1.92,5 -2.88,7.52 a 12.32,12.32 0 0 0 -1,4.16 c 0,2.08 3,2.48 5,2.72 v 0.8 h -13.2 V 57.6 a 8,8 0 0 0 4.16,-1.6 c 0.48,-0.48 1.76,-1.92 3.6,-6.08 3.12,-7.2 7.6,-18.08 11.12,-26.48 l -0.64,-1.52 a 10,10 0 0 0 5.76,-4.72 h 0.8 c 5.76,15.52 10.56,28.32 12.8,34.32 1.2,3.28 3,5.76 7,6.08 v 0.88 h -18.4 z M 214.8,25.01 c -1.12,2.8 -3.2,7.84 -6.72,16.64 h 13.36 c -2.56,-6.64 -5.2,-13.25 -6.64,-16.64 z"
     id="path38"
     inkscape:connector-curvature="0"
     style="fill:#ffffff" />
  <path
     class="b"
     d="m 280.08,22.4 c -0.48,1.12 -0.56,4.48 -0.72,7.92 -0.08,3.2 -0.24,7.52 -0.24,12.56 v 15.44 a 1.05,1.05 0 0 1 -0.88,0.72 2.07,2.07 0 0 1 -1.36,-0.8 C 264.24,43.52 257.68,35.84 247.6,24.4 v 21.92 c 0,3.76 0.08,7 0.88,8.48 0.8,1.68 3,2.48 6,2.88 v 0.8 H 239.2 v -0.8 c 1.76,-0.24 4.24,-0.8 5.36,-2.48 1.12,-1.68 1.28,-4.64 1.36,-8.88 0.08,-3.2 0.24,-7.2 0.24,-12.24 0,-4.24 0,-6.64 -0.08,-8.8 -0.48,-4.48 -4.64,-6.08 -7,-6.32 v -0.8 h 12.8 l 25.76,29.6 V 30.32 c 0,-3 0,-5.84 -0.56,-7.44 -0.72,-2.08 -3,-3.44 -6.56,-3.92 v -0.8 h 15.28 v 0.85 c -2.68,0.35 -4.84,1.31 -5.72,3.39 z"
     id="path40"
     inkscape:connector-curvature="0"
     style="fill:#ffffff" />
  <path
     class="b"
     d="m 326.88,58.4 h -0.56 a 14.54,14.54 0 0 0 -2.4,-3 24.21,24.21 0 0 1 -12.48,3.61 c -14.4,0 -22.32,-8.72 -22.32,-20.72 a 20.4,20.4 0 0 1 3.2,-11.2 c 3.36,-5.28 9.2,-9.76 19,-9.76 a 23.63,23.63 0 0 1 12.56,3.52 9.31,9.31 0 0 0 2.64,-2.72 h 0.56 v 14.16 h -0.88 a 21.92,21.92 0 0 0 -2.4,-6.08 c -2.32,-4.08 -6.64,-7.68 -12.16,-7.68 -9.6,0 -14.4,10.24 -14.4,20 0,10.32 5.28,19.28 14.48,19.28 8,0 13.2,-7.28 14.48,-13.76 h 0.88 z"
     id="path42"
     inkscape:connector-curvature="0"
     style="fill:#ffffff" />
  <path
     class="b"
     d="m 332.55,58.48 v -0.8 c 1.92,-0.24 4.08,-0.88 5.28,-2.16 0.72,-0.88 0.72,-3.52 0.8,-5.92 0.08,-2.08 0.08,-7.36 0.08,-11.44 v -10.8 c 0,-2.56 0,-5.44 -0.8,-6.4 -1.12,-1.28 -3.2,-1.76 -5.2,-2 v -0.8 h 19.12 v 0.85 c -1.68,0.24 -4.24,0.64 -5.2,2.4 -0.72,1.28 -0.64,3.44 -0.64,5.12 -0.08,3.76 -0.08,6.88 -0.08,11.44 v 12.48 c 0,2.16 0,4.4 0.56,5.2 1,1.28 3.76,2 5.36,2.08 v 0.8 h -19.28 z"
     id="path44"
     inkscape:connector-curvature="0"
     style="fill:#ffffff" />
  <path
     class="b"
     d="m 372.88,59.12 c -8.48,0 -11.92,-2.72 -12.4,-2.72 a 7.56,7.56 0 0 0 -1.68,2.08 h -0.48 l -0.32,-13 h 0.64 c 1.36,4.08 5,9 7.68,10.48 a 12.37,12.37 0 0 0 6.4,2 c 5.68,0 9,-3.52 9,-8.24 0,-5 -4.48,-6.48 -8.4,-7.52 -2.8,-0.72 -4.32,-1.2 -6.72,-1.92 a 11.87,11.87 0 0 1 -8.05,-10.92 c 0,-7.6 6.64,-12.08 14.64,-12.08 a 17.61,17.61 0 0 1 10.32,3 10.59,10.59 0 0 0 1.84,-2.24 h 0.56 v 12.32 h -0.64 C 383.19,25 379.19,18.44 373.19,18.44 c -5.28,0 -8.56,3.2 -8.56,7.84 0,3.92 2.48,6.32 5.84,7.52 2.16,0.8 4.56,1.2 8.88,2.48 5.52,1.6 8.88,5.68 8.88,11.12 0.01,6.92 -6.47,11.72 -15.35,11.72 z"
     id="path46"
     inkscape:connector-curvature="0"
     style="fill:#ffffff" />
  <path
     class="b"
     d="m 452.4,12.01 c -3.6,4.32 -9.12,11 -12.24,14.8 1.36,1.92 11.84,17 14.24,20.32 4.32,6.24 6.64,9.84 11.2,10.56 v 0.8 h -25.92 v -0.8 c 3,-0.32 7.36,-0.88 7.36,-3.92 0,-1.52 -1.6,-4.16 -3.44,-7 -2.4,-3.84 -5.6,-8.32 -9.6,-13.92 -3.45,4.16 -8.45,10.27 -11.12,13.87 -1.52,2.16 -2.88,4.32 -2.88,6.24 0,3 4.4,4.4 7.36,4.72 v 0.8 H 406 v -0.8 c 4.4,-1.12 9,-4.8 13.84,-10.16 3.2,-3.6 10.08,-12.08 13.28,-15.92 L 419.36,12.24 C 414.88,6 412.8,3.12 407.92,1.68 V 0.88 H 434 v 0.8 c -2.88,0.32 -7.6,1 -7.6,3.92 0,1.44 1.84,4.24 3.68,6.88 3,4.32 5.12,7.44 9.12,13.12 3.52,-4 7.52,-9.36 10.24,-12.88 1.28,-1.68 3.2,-4.72 3.2,-6.4 0,-3 -4.48,-4.16 -7.28,-4.64 v -0.8 h 20.88 v 0.8 C 460.8,2.8 457.04,6.4 452.4,12.01 Z"
     id="path48"
     inkscape:connector-curvature="0"
     style="fill:#ffffff" />
  <path
     class="b"
     d="m 487.04,58.48 v -0.8 c 1.6,-0.24 4.48,-0.64 4.48,-2.56 0,-1.44 -1.68,-6 -3.84,-11.84 h -14.72 c -1,2.72 -1.92,5 -2.88,7.52 a 12.32,12.32 0 0 0 -1,4.16 c 0,2.08 3,2.48 5,2.72 v 0.8 h -13.2 V 57.6 a 8,8 0 0 0 4.16,-1.6 c 0.48,-0.48 1.76,-1.92 3.6,-6.08 3.12,-7.2 7.6,-18.08 11.12,-26.48 l -0.64,-1.52 a 10,10 0 0 0 5.76,-4.72 h 0.67 c 5.76,15.52 10.56,28.32 12.8,34.32 1.2,3.28 3,5.76 7,6.08 v 0.88 h -18.4 z M 480.4,25.01 c -1.12,2.8 -3.2,7.84 -6.72,16.64 h 13.36 c -2.56,-6.64 -5.2,-13.25 -6.64,-16.64 z"
     id="path50"
     inkscape:connector-curvature="0"
     style="fill:#ffffff" />
  <path
     class="b"
     d="m 540.08,20.56 c -0.56,0.56 -1.6,1.68 -3.44,5.76 -3.28,7.36 -7.84,18.56 -11.2,26.88 l -3,5.76 h -1.12 c -5.28,-12.4 -9,-21.92 -13,-31.28 a 54,54 0 0 0 -2.77,-5.67 6.06,6.06 0 0 0 -5.6,-3 v -0.8 h 18.88 v 0.8 c -0.64,0.08 -4.88,0.24 -4.88,2.4 0,1.92 6.4,16.4 11.44,28.24 1.12,-2.64 5.2,-12.56 8.48,-21.36 1.44,-3.92 1.84,-5.76 1.84,-6.64 0,-2 -3.68,-2.4 -5.92,-2.64 v -0.8 h 14.88 v 0.8 a 12.89,12.89 0 0 0 -4.59,1.55 z"
     id="path52"
     inkscape:connector-curvature="0"
     style="fill:#ffffff" />
  <path
     class="b"
     d="m 544.64,58.48 v -0.8 c 1.92,-0.24 4.08,-0.88 5.28,-2.16 0.72,-0.88 0.72,-3.52 0.8,-5.92 0.08,-2.08 0.08,-7.36 0.08,-11.44 v -10.8 c 0,-2.56 0,-5.44 -0.8,-6.4 -1.12,-1.28 -3.2,-1.76 -5.2,-2 v -0.8 h 19.12 v 0.85 c -1.68,0.24 -4.24,0.64 -5.2,2.4 -0.72,1.28 -0.64,3.44 -0.64,5.12 C 558,30.29 558,33.41 558,37.97 v 12.48 c 0,2.16 0,4.4 0.56,5.2 1,1.28 3.76,2 5.36,2.08 v 0.8 h -19.28 z"
     id="path54"
     inkscape:connector-curvature="0"
     style="fill:#ffffff" />
  <path
     class="b"
     d="m 604.55,58.48 h -35.67 v -0.8 c 1.84,-0.24 4.16,-1 5.12,-2.16 0.72,-0.88 1,-3.52 1,-5.92 0.08,-2.08 0.08,-7.36 0.08,-11.44 v -10.8 c 0,-2.56 0,-5.84 -1,-6.8 -1.12,-1.12 -2.72,-1.28 -4.8,-1.6 v -0.8 h 32.32 l 3.6,10.4 -0.72,0.32 c -3,-3.76 -6.48,-7.36 -9,-8.56 -1.12,-0.56 -4.16,-1.12 -9,-1.12 a 19.26,19.26 0 0 0 -3.6,0.24 16.1,16.1 0 0 0 -0.48,4 c -0.16,5.2 -0.16,12 -0.16,13.84 a 37.35,37.35 0 0 0 5.92,-0.48 c 4.64,-1 6.08,-3.76 6.88,-7.84 h 0.8 v 18.16 h -0.8 a 14.71,14.71 0 0 0 -3.68,-6.72 8.14,8.14 0 0 0 -5.12,-1.92 c -1.12,-0.08 -2.16,-0.08 -4,-0.08 0,6.08 0.08,9.6 0.16,11.84 0.08,2.4 0.08,4.72 0.88,5.68 0.8,0.96 3,1.52 6,1.52 a 29.07,29.07 0 0 0 4.8,-0.32 c 4.72,-0.72 8.4,-4.4 12.08,-10.72 l 0.72,0.16 z"
     id="path56"
     inkscape:connector-curvature="0"
     style="fill:#ffffff" />
  <path
     class="b"
     d="m 640.96,58.48 a 24.85,24.85 0 0 1 -3.12,-4.24 105.15,105.15 0 0 0 -7.36,-10.56 11.65,11.65 0 0 0 -5,-3.68 8.57,8.57 0 0 0 -2.4,-0.4 v 10.64 c 0,2.4 0.08,3.92 0.8,5.12 0.56,1 2.56,2.24 5.44,2.32 v 0.8 h -19.77 v -0.8 c 1.84,-0.24 4.24,-0.8 5.2,-2 0.88,-1 1,-3.68 1,-6.08 0,-2.08 0.08,-7.36 0.08,-11.44 v -10.8 c 0,-2.56 -0.08,-5.68 -1,-6.64 -1.2,-1.2 -2.8,-1.44 -5,-1.76 v -0.8 c 1,0 12.24,-0.08 16.48,-0.08 5.12,0 9,0.08 12.4,1.76 a 9.53,9.53 0 0 1 5.68,9 c 0,5.52 -4.48,8.8 -9.6,10.32 v 0.16 a 15.84,15.84 0 0 1 3.84,3.6 c 2,2.8 4.48,6.48 6.4,9 2.8,3.92 5.12,5.28 8.8,5.76 v 0.8 h -13 z M 631.68,20.4 a 11.44,11.44 0 0 0 -5.52,-1.2 13.78,13.78 0 0 0 -2.56,0.16 31.2,31.2 0 0 0 -0.32,4.24 c -0.16,5.2 -0.16,12.56 -0.16,15 a 22.88,22.88 0 0 0 7.52,-0.8 c 4.56,-1.6 6.16,-5.2 6.16,-9.28 a 8.65,8.65 0 0 0 -5.12,-8.12 z"
     id="path58"
     inkscape:connector-curvature="0"
     style="fill:#ffffff" />
  <path
     class="b"
     d="m 187.04,84.68 a 25.37,25.37 0 0 0 -0.55,5.77 c -0.06,2.2 -0.16,5.39 -0.22,7.87 -0.05,2.75 0.11,11.61 -11.11,11.61 -10.67,0 -11.11,-8.2 -11.11,-10.12 V 88.09 c 0,-1.76 0,-3.74 -0.55,-4.4 a 5.37,5.37 0 0 0 -3.46,-1.37 v -0.55 h 13 v 0.55 c -1.6,0.22 -3.74,0.71 -3.85,3.08 -0.06,2.09 -0.06,4.4 -0.06,6.1 0,3.58 0,5 0.06,7.48 0.11,5.39 3,9 7.59,9 8.09,0 8.53,-6.27 8.58,-11.33 v -6.21 a 28.82,28.82 0 0 0 -0.38,-5.45 c -0.55,-1.43 -2.09,-2.36 -4.51,-2.69 v -0.55 h 10.62 v 0.55 c -1.96,0.29 -3.44,0.95 -4.05,2.38 z"
     id="path60"
     inkscape:connector-curvature="0"
     style="fill:#ffffff" />
  <path
     class="b"
     d="m 224.77,84.68 a 26.22,26.22 0 0 0 -0.5,5.44 c -0.05,2.2 -0.16,5.17 -0.16,8.64 v 10.61 a 0.73,0.73 0 0 1 -0.61,0.5 1.42,1.42 0 0 1 -0.93,-0.55 C 213.88,99.2 209.37,93.92 202.44,86.06 v 15.07 c 0,2.58 0.06,4.84 0.61,5.83 0.55,1.16 2,1.71 4.12,2 v 0.55 h -10.5 v -0.55 c 1.21,-0.16 2.92,-0.55 3.69,-1.71 0.77,-1.16 0.88,-3.19 0.94,-6.11 0.05,-2.2 0.17,-5 0.17,-8.42 0,-2.91 0,-4.56 -0.06,-6 -0.33,-3.08 -3.19,-4.18 -4.79,-4.34 v -0.55 h 8.8 l 17.71,20.35 v -12 a 19.08,19.08 0 0 0 -0.38,-5.12 c -0.5,-1.43 -2,-2.36 -4.51,-2.69 v -0.55 h 10.5 v 0.55 c -1.88,0.22 -3.37,0.88 -3.97,2.31 z"
     id="path62"
     inkscape:connector-curvature="0"
     style="fill:#ffffff" />
  <path
     class="b"
     d="m 235.38,109.48 v -0.55 a 6.19,6.19 0 0 0 3.63,-1.49 c 0.5,-0.6 0.5,-2.42 0.55,-4.07 0.06,-1.43 0.06,-5.06 0.06,-7.86 v -7.43 c 0,-1.76 0,-3.74 -0.55,-4.4 a 5.68,5.68 0 0 0 -3.57,-1.37 v -0.55 h 13.14 v 0.55 c -1.16,0.16 -2.91,0.44 -3.58,1.65 a 8.07,8.07 0 0 0 -0.44,3.52 c -0.06,2.58 -0.06,4.73 -0.06,7.87 v 8.58 c 0,1.48 0,3 0.39,3.57 0.66,0.88 2.58,1.38 3.68,1.43 v 0.55 z"
     id="path64"
     inkscape:connector-curvature="0"
     style="fill:#ffffff" />
  <path
     class="b"
     d="m 281.03,83.41 c -0.39,0.38 -1.1,1.16 -2.37,4 -2.25,5.06 -5.39,12.76 -7.7,18.48 l -2.09,4 h -0.77 c -3.63,-8.53 -6.21,-15.07 -9,-21.5 a 37,37 0 0 0 -1.87,-3.91 4.16,4.16 0 0 0 -3.85,-2.09 v -0.55 h 13 v 0.55 c -0.44,0.05 -3.35,0.16 -3.35,1.65 0,1.32 4.4,11.28 7.87,19.41 0.77,-1.81 3.58,-8.63 5.83,-14.68 A 16.54,16.54 0 0 0 278,84.2 c 0,-1.37 -2.53,-1.65 -4.07,-1.81 v -0.55 h 10.23 v 0.55 a 8.86,8.86 0 0 0 -3.13,1.02 z"
     id="path66"
     inkscape:connector-curvature="0"
     style="fill:#ffffff" />
  <path
     class="b"
     d="m 312.55,109.48 h -24.53 v -0.55 a 5.91,5.91 0 0 0 3.52,-1.49 c 0.5,-0.6 0.66,-2.42 0.72,-4.07 0.05,-1.43 0.05,-5.06 0.05,-7.86 v -7.43 c 0,-1.76 0,-4 -0.66,-4.67 -0.66,-0.67 -1.87,-0.88 -3.3,-1.1 v -0.55 h 22.2 l 2.47,7.15 -0.49,0.22 c -2.09,-2.58 -4.46,-5.06 -6.16,-5.88 -0.77,-0.38 -2.86,-0.77 -6.21,-0.77 a 13.22,13.22 0 0 0 -2.48,0.17 11.09,11.09 0 0 0 -0.33,2.75 c -0.11,3.58 -0.11,8.25 -0.11,9.51 a 25.67,25.67 0 0 0 4.07,-0.33 c 3.19,-0.71 4.18,-2.58 4.73,-5.39 h 0.55 v 12.49 h -0.55 a 10.11,10.11 0 0 0 -2.49,-4.67 5.6,5.6 0 0 0 -3.52,-1.32 c -0.77,-0.05 -1.48,-0.05 -2.75,-0.05 0,4.18 0.06,6.6 0.11,8.14 0.05,1.54 0.06,3.25 0.61,3.91 0.55,0.66 2,1 4.12,1 a 20,20 0 0 0 3.3,-0.22 c 3.25,-0.5 5.77,-3 8.3,-7.37 l 0.5,0.11 z"
     id="path68"
     inkscape:connector-curvature="0"
     style="fill:#ffffff" />
  <path
     class="b"
     d="m 341.7,109.48 a 17.12,17.12 0 0 1 -2.15,-2.91 72.15,72.15 0 0 0 -5.06,-7.26 8,8 0 0 0 -3.41,-2.53 5.9,5.9 0 0 0 -1.65,-0.28 v 7.32 a 6.83,6.83 0 0 0 0.55,3.52 4.67,4.67 0 0 0 3.74,1.6 v 0.55 h -13.58 v -0.55 c 1.26,-0.16 2.91,-0.55 3.57,-1.37 0.61,-0.66 0.66,-2.53 0.71,-4.18 0,-1.43 0.05,-5.06 0.05,-7.86 V 88.1 c 0,-1.76 -0.05,-3.9 -0.71,-4.56 -0.82,-0.83 -1.92,-1 -3.41,-1.21 v -0.55 c 0.66,0 8.42,-0.06 11.33,-0.06 3.52,0 6.22,0.06 8.53,1.21 a 6.55,6.55 0 0 1 3.91,6.21 c 0,3.8 -3.08,6.05 -6.6,7.1 v 0.11 a 10.88,10.88 0 0 1 2.64,2.48 c 1.38,1.92 3.08,4.46 4.4,6.16 1.92,2.69 3.52,3.63 6,4 v 0.55 h -8.91 z M 335.32,83.3 a 7.85,7.85 0 0 0 -3.79,-0.83 9.54,9.54 0 0 0 -1.76,0.11 21.19,21.19 0 0 0 -0.22,2.91 c -0.11,3.58 -0.11,8.64 -0.11,10.34 a 15.72,15.72 0 0 0 5.17,-0.55 c 3.13,-1.1 4.23,-3.57 4.23,-6.38 a 5.94,5.94 0 0 0 -3.52,-5.6 z"
     id="path70"
     inkscape:connector-curvature="0"
     style="fill:#ffffff" />
  <path
     class="b"
     d="m 365.4,109.92 a 17.29,17.29 0 0 1 -8.52,-1.87 5.2,5.2 0 0 0 -1.16,1.43 h -0.33 l -0.22,-9 h 0.44 c 0.93,2.8 3.41,6.16 5.28,7.2 a 8.51,8.51 0 0 0 4.4,1.37 c 3.9,0 6.21,-2.42 6.21,-5.66 0,-3.46 -3.08,-4.46 -5.78,-5.17 -1.92,-0.5 -3,-0.83 -4.62,-1.32 a 8.16,8.16 0 0 1 -5.56,-7.48 c 0,-5.22 4.57,-8.3 10.07,-8.3 a 12.11,12.11 0 0 1 7.09,2 7.3,7.3 0 0 0 1.26,-1.54 h 0.38 v 8.47 h -0.44 c -1.43,-3.68 -4.18,-8.19 -8.3,-8.19 -3.63,0 -5.88,2.2 -5.88,5.39 0,2.7 1.71,4.34 4,5.17 1.49,0.55 3.13,0.83 6.1,1.71 3.79,1.1 6.11,3.91 6.11,7.64 0.03,4.85 -4.38,8.15 -10.53,8.15 z"
     id="path72"
     inkscape:connector-curvature="0"
     style="fill:#ffffff" />
  <path
     class="b"
     d="m 383.55,109.48 v -0.55 a 6.19,6.19 0 0 0 3.63,-1.49 c 0.5,-0.6 0.5,-2.42 0.55,-4.07 0.05,-1.43 0.05,-5.06 0.05,-7.86 v -7.43 c 0,-1.76 0,-3.74 -0.55,-4.4 a 5.67,5.67 0 0 0 -3.57,-1.37 v -0.55 h 13.14 v 0.55 c -1.15,0.16 -2.91,0.44 -3.57,1.65 a 8.06,8.06 0 0 0 -0.44,3.52 c -0.06,2.58 -0.06,4.73 -0.06,7.87 v 8.58 c 0,1.48 0,3 0.39,3.57 0.66,0.88 2.58,1.38 3.68,1.43 v 0.55 z"
     id="path74"
     inkscape:connector-curvature="0"
     style="fill:#ffffff" />
  <path
     class="b"
     d="m 431.55,90.01 a 26.56,26.56 0 0 0 -3.74,-5.61 c -1.1,-1 -2.31,-1.26 -4.29,-1.32 -1.98,-0.06 -1.43,-0.05 -3.74,-0.05 -0.05,2.64 -0.11,8.2 -0.11,11.33 v 9.46 c 0,1.43 0.06,3 0.44,3.52 0.77,1.1 2.8,1.43 4,1.6 v 0.55 h -13.88 v -0.55 a 5.39,5.39 0 0 0 3.85,-1.65 c 0.5,-0.55 0.5,-2.42 0.55,-4.07 0.05,-1.43 0.05,-5.88 0.05,-8.69 0,-3.08 -0.05,-8.41 -0.05,-11.5 -2.25,0 -1.71,0 -3.74,0.05 a 5.88,5.88 0 0 0 -4.23,1.43 23.66,23.66 0 0 0 -3.74,5.5 l -0.44,-0.11 1.43,-8.8 a 9.8,9.8 0 0 0 4,1 h 18.76 a 8.52,8.52 0 0 0 3.9,-1 l 1.43,8.8 z"
     id="path76"
     inkscape:connector-curvature="0"
     style="fill:#ffffff" />
  <path
     class="b"
     d="m 457.31,87.1 c -0.83,1.21 -3.69,5.72 -6,9.46 v 7.26 c 0,1.43 0.05,3 0.44,3.52 0.83,1.1 2.59,1.43 3.74,1.6 v 0.55 h -13.47 v -0.55 a 4.89,4.89 0 0 0 3.69,-1.6 c 0.55,-0.49 0.55,-2.47 0.61,-4.12 0,-1.43 0.05,-3 0.05,-5.77 -0.94,-1.59 -4.68,-7.87 -6.21,-10.07 -2.31,-3.35 -3.52,-5 -5.83,-5.06 v -0.55 h 13.14 v 0.55 c -1.54,0.16 -3.41,0.33 -3.41,1.54 0,0.66 0.94,2.09 1.76,3.52 1.1,1.82 3.25,5.33 5.06,8.14 0.61,-0.94 2.64,-4.35 4.73,-8 a 9.21,9.21 0 0 0 1.32,-3.25 c 0,-1.65 -1.87,-1.71 -3.3,-1.92 V 81.8 h 9.68 v 0.55 c -2.92,0.4 -4.08,1.94 -6,4.75 z"
     id="path78"
     inkscape:connector-curvature="0"
     style="fill:#ffffff" />
  <rect
     class="b"
     x="161.14999"
     y="70.340004"
     width="299.98001"
     height="2"
     id="rect80"
     style="fill:#ffffff" />
</svg>
