<?xml version="1.0" encoding="UTF-8" standalone="no"?>
<svg
   xmlns:dc="http://purl.org/dc/elements/1.1/"
   xmlns:cc="http://creativecommons.org/ns#"
   xmlns:rdf="http://www.w3.org/1999/02/22-rdf-syntax-ns#"
   xmlns:svg="http://www.w3.org/2000/svg"
   xmlns="http://www.w3.org/2000/svg"
   xmlns:sodipodi="http://sodipodi.sourceforge.net/DTD/sodipodi-0.dtd"
   xmlns:inkscape="http://www.inkscape.org/namespaces/inkscape"
   id="Layer_1"
   version="1.1"
   sodipodi:docname="library-logo.svg"
   width="152.98933"
   height="104.5"
   inkscape:version="0.92.1 r15371">
  <metadata
     id="metadata6273">
    <rdf:RDF>
      <cc:Work
         rdf:about="">
        <dc:format>image/svg+xml</dc:format>
        <dc:type
           rdf:resource="http://purl.org/dc/dcmitype/StillImage" />
        <dc:title></dc:title>
      </cc:Work>
    </rdf:RDF>
  </metadata>
  <defs
     id="defs6271" />
  <sodipodi:namedview
     pagecolor="#ffffff"
     bordercolor="#666666"
     borderopacity="1"
     objecttolerance="10"
     gridtolerance="10"
     guidetolerance="10"
     inkscape:pageopacity="0"
     inkscape:pageshadow="2"
     inkscape:window-width="1920"
     inkscape:window-height="1017"
     id="namedview6269"
     showgrid="false"
     inkscape:pagecheckerboard="true"
     fit-margin-top="8"
     fit-margin-left="8"
     fit-margin-right="8"
     fit-margin-bottom="8"
     inkscape:zoom="2.36"
     inkscape:cx="7.0893391"
     inkscape:cy="71.4"
     inkscape:window-x="-8"
     inkscape:window-y="-8"
     inkscape:window-maximized="1"
     inkscape:current-layer="Layer_1" />
  <style
     id="style6260">.st2{fill:#fff}.st3{fill:#af8400}</style>
  <path
     class="st2"
     d="m 55.589339,77.7 c -0.2,0.1 -0.2,-0.9 0,-0.9 3.4,-0.4 3.8,-0.5 3.8,-4.3 V 51.1 c 0,-3.1 -0.6,-2.8 -3.1,-2 -0.2,0.1 -0.5,-0.6 -0.3,-0.8 2.1,-1.1 5.1,-2.7 6.8,-4.2 0.1,-0.1 0.8,0.2 0.7,0.5 -0.2,1 -0.3,4.4 -0.3,6.2 v 21.6 c 0,3.8 0.3,3.9 3.7,4.3 0.2,0 0.2,1 0,0.9 -1.5,-0.2 -3.7,-0.2 -5.7,-0.2 -2,0.1 -4.1,0.1 -5.6,0.3 z m 12.5,0 c -0.3,0.1 -0.2,-0.9 0,-0.9 3.4,-0.4 3.7,-0.5 3.7,-4.3 V 64 c 0,-3.1 -0.6,-3.7 -3.1,-2.9 -0.2,0.1 -0.5,-0.6 -0.2,-0.8 2.1,-1.2 5.1,-2.8 6.8,-4.4 0.1,-0.1 0.8,0.2 0.7,0.4 -0.3,1 -0.3,5.5 -0.3,7.3 v 8.7 c 0,3.8 0.3,3.9 3.7,4.3 0.2,0 0.2,1 0,0.9 -1.5,-0.2 -3.6,-0.2 -5.5,-0.2 -2.1,0.1 -4.4,0.1 -5.8,0.4 z m 4,-30.1 c 0,-1.3 1,-2.4 2.3,-2.4 1.3,0 2.4,1.1 2.4,2.3 0,1.3 -1.1,2.4 -2.5,2.4 -1.2,0 -2.2,-1.1 -2.2,-2.3 z m 8.9,29 c -0.2,-0.1 -0.3,-3.5 -0.3,-5.7 0,-0.2 0.7,-0.2 0.9,-0.1 1.2,4.4 3.7,6 6.3,6 2.5,0 3.5,-1.4 3.5,-3.5 0,-4.9 -9.9,-5.3 -9.9,-11 0,-3.1 2.6,-5.9 7.2,-5.9 1.9,0 3.2,0.3 4.5,0.9 0.2,0.2 0.6,3.1 0.6,5.2 0,0.2 -0.9,0.2 -0.9,0.1 -0.9,-2.9 -3.1,-4.9 -5.3,-4.9 -1.8,0 -2.8,1.3 -2.8,3.2 0,4.7 9.8,4.6 9.8,10.7 0,3.5 -3.1,6.6 -7.6,6.6 -2.2,-0.1 -4.4,-0.7 -6,-1.6 z m 16,-8.9 c 0,-5.8 4.300001,-11.2 11.300001,-11.2 6.6,0 10.8,5 10.8,10.5 0,5.8 -4.4,11.2 -11.4,11.2 -6.6,0 -10.700001,-5.1 -10.700001,-10.5 z m 4.000001,-2 c 0,6.9 3.1,11 7.8,11 4.1,0 6.1,-3.6 6.1,-7.7 0,-6.9 -3.1,-11 -7.8,-11 -4.1,0 -6.1,3.6 -6.1,7.7 z m 33.4,12 c -0.3,0.1 -0.1,-1 0,-1 2.6,-0.3 3.1,-0.6 3.1,-4.2 V 65 c 0,-4.3 -0.7,-6.1 -3.6,-6.1 -1.7,0 -2.9,0.5 -6.6,2.7 v 11 c 0,3.4 0.4,4 3.1,4.2 0.1,0 0.2,1.1 -0.1,0.9 -1.1,-0.2 -3.3,-0.2 -4.7,-0.2 -1.9,0 -4.4,0 -5.8,0.2 -0.3,0.1 -0.1,-0.9 0,-0.9 3.4,-0.4 3.8,-0.5 3.8,-4.2 v -8.5 c 0,-3.2 -0.6,-3.8 -3.1,-2.9 -0.2,0.1 -0.6,-0.7 -0.3,-0.8 2.1,-1.1 4.5,-2.8 6.2,-4.3 0.1,-0.1 0.6,0.2 0.6,0.4 0.1,0.8 0.2,2.6 0.2,3.8 4.2,-2.9 6.6,-3.8 8.9,-3.8 3.7,0 5.1,2.4 5.1,6.3 v 9.7 c 0,3.5 0.1,4 3.7,4.2 0.1,0 0.2,1 -0.1,1 -0.9,-0.2 -4,-0.2 -5.5,-0.2 -1.8,-0.1 -3.4,-0.1 -4.9,0.2 z m -80.000001,-1 c -3.4,-0.4 -3.7,-0.5 -3.7,-4.3 V 50.9 c 0,-1.9 0.1,-5.3 0.3,-6.2 0.1,-0.2 -0.7,-0.5 -0.7,-0.5 -1.7,1.5 -4.7,3.1 -6.8,4.2 -0.2,0.2 0.1,0.8 0.2,0.8 2.5,-0.8 3.1,-1.1 3.1,2 v 21.4 c 0,3.6 -0.8,4.1 -3.5,4.2 -4.2,-0.1 -4.6,-2.1 -6.8,-7.9 l -9.3,-24.2 c -0.1,-0.3 -0.8,-0.4 -1,0 l -10.8,24.3 c -0.1,0.1 -0.8,1.7 -1.1,2.3 -1.9,3.8 -3.2,5.4 -6.0999999,5.6 -0.2,0 -0.3,1.1 0,1 2.0999999,-0.2 2.1999999,-0.3 5.0999999,-0.3 2.1,0 3.3,0.1 4.8,0.3 0.4,0.1 0.3,-1 0,-1 -2,-0.3 -3,-0.5 -3,-1.6 0,-0.9 0.4,-2.1 1,-3.6 0.2,-0.6 2.9,-6.7 2.9,-6.7 l 0.6,-1.4 5.7,-12.8 4.7,12.8 0.5,1.4 1.5,4 c 0.9,2.5 1.9,4.8 1.9,6.3 0,1.4 -1.2,1.3 -3.5,1.6 -0.1,0 -0.3,1.1 0.1,0.9 2.1,-0.2 4.4,-0.2 7.3,-0.2 2.1,0 4.8,-0.1 6.4,-0.1 h 4.6 c 2.2,0 4.1,0.1 5.7,0.2 0.1,0 0,-1 -0.1,-1 z m -13.9,-35.6 c -0.4,0.1 -0.2,-0.9 0,-1 3.9,-0.4 4.3,-0.5 4.1,-8 l -0.3,-17.9 -11.7,26.8 c -0.1,0.2 -0.7,0.3 -0.9,-0.1 l -12,-25.2 -0.3,16.5 c -0.1,6.6 -0.1,7.5 4.6,8 0.2,0 0.3,1.1 -0.1,1 -1.6,-0.2 -2.9,-0.3 -5.1,-0.3 -2.9,0 -4.1,0 -6.3,0.3 -0.4,0.1 -0.3,-0.9 0,-1 4.5,-0.5 4.7,-1 4.8,-8 l 0.3,-17.7 c 0,-3.5 -1.8,-5.1 -5.6,-5.5 -0.2,-0.1 -0.4,-1 0,-0.9 2.5,0.4 4.7,0.4 9,0.4 l 12.3,26.4 7.6,-17.3 c 1.5,-3.3 2.9,-6.6 3.6,-9.3 3.3,0.2 6.5,0.1 9,-0.3 0.5,0 0.3,0.9 0.1,0.9 -5.2,0.5 -5.2,0.8 -5,8 l 0.3,15.1 c 0.2,7.2 0,7.5 5.3,8 0.2,0 0.4,1.1 0,1 -1.6,-0.2 -4.5,-0.3 -6.7,-0.3 -2.9,0.1 -4.8,0.1 -7,0.4 z m 12.8,-10.1 c 0,-5.8 4.3,-11.2 11.3,-11.2 6.6,0 10.9,5 10.9,10.5 0,5.8 -4.4,11.2 -11.4,11.2 -6.6,0 -10.8,-5.1 -10.8,-10.5 z m 4.1,-2.1 c 0,6.9 3.1,11 7.8,11 4.1,0 6.1,-3.6 6.1,-7.7 0,-6.9 -3.1,-11.1 -7.8,-11.1 -4.1,0.1 -6.1,3.8 -6.1,7.8 z m 35.6,8.3 c -2.2,2.2 -5.5,4.2 -8.1,4.2 -3.3,0 -5.7,-2 -5.6,-6.3 l 0.2,-9.6 c 0.1,-2.5 -0.2,-2.9 -3.2,-3 -0.1,0 -0.4,-0.7 -0.1,-0.8 2.2,-0.4 4.6,-1.3 6.2,-2.2 0.1,-0.1 0.7,0.3 0.7,0.6 0.1,0.9 0.2,3 0.2,4.8 l -0.1,7.9 c -0.1,4.7 0.9,6 3.9,6 1.8,0 3.6,-0.9 6,-3 l 0.2,-10.6 c 0.1,-2.5 -0.2,-2.9 -3.1,-3.1 -0.1,0 -0.5,-0.8 -0.2,-0.8 2.2,-0.4 4.6,-1.1 6.2,-2 0.1,0 0.7,0.4 0.7,0.6 0.1,0.9 0.1,3.2 0.1,5 l -0.1,11.5 c 0,2.4 1,2.6 4.000001,1.8 0.1,0 0.5,0.8 0.2,0.9 -1.800001,0.9 -5.300001,2.4 -6.400001,2.4 -1,0.1 -1.6,-1.6 -1.7,-4.3 z M 115.98934,41 c -0.3,0.1 -0.2,-1 0,-1 2.6,-0.3 3.1,-0.6 3.1,-4.2 v -7.5 c 0,-4.3 -0.7,-6.1 -3.6,-6.1 -1.7,0 -2.9,0.5 -6.6,2.7 v 11 c 0,3.4 0.4,4 3.1,4.2 0.1,0 0.3,1.1 -0.1,1 -1.1,-0.2 -3.3,-0.2 -4.7,-0.2 -2,0 -4.4,0 -5.8,0.2 -0.3,0.1 -0.2,-1 -0.1,-1 3.4,-0.4 3.8,-0.5 3.8,-4.2 v -8.5 c 0,-3.2 -0.6,-3.8 -3.1,-2.9 -0.2,0 -0.6,-0.7 -0.3,-0.8 2.1,-1.1 4.5,-2.8 6.2,-4.3 0.1,-0.1 0.6,0.2 0.7,0.5 0.1,0.8 0.2,2.6 0.2,3.8 4.2,-2.9 6.6,-3.8 8.9,-3.8 3.7,0 5.1,2.4 5.1,6.3 V 36 c 0,3.5 0.1,4 3.7,4.2 0.1,0 0.2,1 0,1 -1,-0.2 -4,-0.2 -5.5,-0.2 -2,-0.2 -3.5,-0.2 -5,0 z m 13.2,-4.6 0.2,-13.7 h -3.2 c -0.3,0 -0.4,-0.9 -0.3,-0.9 2.6,-1.7 4.7,-3.8 6.9,-6.1 0.1,0 0.8,0.1 0.7,0.4 -0.1,1 -0.3,3.4 -0.4,4.5 h 2.7 c 2.1,0 3.8,0 4.4,-0.2 0.4,-0.2 0.3,2.6 -0.4,2.5 -0.6,-0.1 -1.5,-0.2 -3.4,-0.2 h -3.3 l -0.2,12.5 c -0.1,2.9 1.4,3.8 3.6,3.8 1.1,0 2.5,-0.2 3.7,-0.5 0.1,0 0.5,0.6 0.3,0.8 -2.2,1.3 -5.1,2 -6.6,2 -3.4,0.1 -4.8,-1.5 -4.7,-4.9 z"
     id="path6262"
     inkscape:connector-curvature="0"
     style="fill:#ffffff" />
  <path
     class="st3"
     d="m 43.089339,60.6 c 0,0.5 0.2,1.5 -0.6,2.5 -0.5,0.5 -1.1,1 -2,1.3 -1.1,0.4 -2.4,0.6 -4,0.6 -0.9,0 -2,-0.1 -3.1,-0.2 -1,-0.1 -1.9,-0.1 -2.7,-0.1 -2.8,0 -5,0.5 -6.4,1.5 -1,0.7 -1.5,1.6 -1.7,2.6 0.3,-0.4 0.8,-0.8 1.2,-1 0.5,-0.2 1.1,-0.3 1.7,-0.3 0.7,0 1.5,0.1 2.2,0.4 1,-1.2 2.4,-1.7 4.8,-1.7 0.7,0 1.6,0 2.7,0.1 0.6,0.1 1.3,0.1 1.8,0.1 1.1,0 2,-0.1 2.8,-0.3 0.7,-0.2 1.5,-0.6 1.8,-1 0.1,0.9 -0.4,1.5 -0.9,1.8 -0.3,0.2 -1.3,1 -4.9,1 h -1.6 c -1.2,0 -2.9,0.1 -3.9,1 l 0.3,0.1 c 0.8,0.3 1.6,0.7 2.3,0.9 0.3,0.1 0.7,0.1 1,0.1 0.6,0 1,-0.1 1.3,-0.3 l 0.2,-0.2 v 0.3 c 0,0.4 -0.3,0.8 -0.7,1 -0.4,0.2 -1,0.4 -1.6,0.4 -0.3,0 -0.5,0 -0.8,-0.1 -0.7,-0.1 -1.6,-0.5 -2.4,-0.8 l -0.5,-0.2 c -1.3,2.3 -0.2,4.2 0,4.5 l 0.2,0.2 h -0.3 c -0.4,0 -1.4,-0.4 -2.1,-1.4 -0.5,-0.8 -1,-2.1 -0.4,-4 -0.3,-0.1 -0.7,-0.1 -1,-0.1 -1.3,0 -2.3,0.6 -2.8,1.5 -0.5,1 -0.2,2.2 0.7,3.4 l 0.2,0.2 h -0.2 c -0.6,0 -1.3,-0.2 -1.9,-0.7 -0.6,-0.4 -1.1,-1 -1.4,-1.7 -0.5,-0.9 -0.7,-2 -0.7,-3 0.1,-1.2 0.5,-2.3 1.2,-3.4 0.8,-1.1 1.9,-1.9 3.4,-2.4 1.2,-0.4 2.6,-0.6 4.3,-0.6 1.7,0 3.2,0.2 4.3,0.3 l 0.6,0.1 c 1.6,0.2 2.9,0.3 4,0.3 3.2,-0.1 4.9,-0.8 5.6,-2.7 z"
     id="path6264"
     inkscape:connector-curvature="0"
     style="fill:#af8400" />
  <path
     class="st2"
     d="m 23.389339,92.6 c 0,2.1 -1.6,3.8 -4.3,3.8 -2.4,0 -4.4,-1.5 -4.4,-3.9 v -3.6 c 0,-1.9 -0.2,-2.2 -1.5,-2.4 -0.1,0 -0.1,-0.4 0,-0.4 0.6,0.1 1.6,0.1 2.5,0.1 0.7,0 1.7,0 2.2,-0.1 0.1,0 0.1,0.4 0,0.4 -1.4,0.1 -1.5,0.5 -1.5,2.4 v 3.2 c 0,2.4 1.5,3.4 3.1,3.4 2.1,0 3.1,-1.1 3.1,-3.2 v -3.6 c 0,-1.8 -0.2,-2.1 -1.5,-2.2 -0.1,0 -0.1,-0.4 0,-0.4 0.6,0.1 1.1,0.1 2,0.1 0.6,0 1.3,0 1.8,-0.1 0.2,0 0.1,0.4 0,0.4 -1.4,0.1 -1.5,0.6 -1.5,2.2 z m 16.4,0.9 c 0,0.8 0,2.1 0.1,2.8 0,0.1 -0.2,0.1 -0.4,0 l -7.6,-7.7 v 4.9 c 0,1.6 0.1,2.2 1.6,2.3 0,0 0.1,0.4 0,0.4 -0.5,-0.1 -1,-0.1 -1.7,-0.1 -0.9,0 -1.6,0 -2.2,0.1 -0.1,0 -0.1,-0.4 0,-0.4 1.3,-0.1 1.6,-0.6 1.6,-2.3 v -5.2 c 0,-0.7 -1.3,-1.6 -2,-1.7 -0.1,0 -0.1,-0.4 0,-0.4 0.6,0.1 1.8,0.1 2.7,0.1 l 7.1,7.4 v -4.8 c 0,-1.8 -0.2,-2.2 -1.5,-2.3 -0.1,0 -0.1,-0.4 0,-0.4 0.6,0.1 1.1,0.1 2,0.1 0.7,0 1.3,0 1.8,-0.1 0.2,0 0.1,0.4 0.1,0.4 -1.4,0.1 -1.6,0.7 -1.6,2.3 z m 8.9,2.7 c -0.9,0 -1.9,0 -2.6,0.1 -0.2,0 -0.1,-0.4 0,-0.4 1.3,-0.1 1.6,-0.4 1.6,-2.3 V 89 c 0,-1.9 -0.2,-2.2 -1.6,-2.3 0,0 -0.1,-0.4 0,-0.4 0.6,0.1 1.6,0.1 2.5,0.1 0.6,0 1.7,0 2.1,-0.1 0.2,0 0.1,0.4 0,0.4 -1.4,0.1 -1.6,0.5 -1.6,2.3 v 4.6 c 0,1.8 0.1,2.2 1.6,2.3 0,0 0.1,0.4 0,0.4 -0.4,-0.1 -1.4,-0.1 -2,-0.1 z m 12.4,0.1 c 0,0.1 -0.3,0.1 -0.3,0 l -3.2,-7.4 c -0.7,-1.7 -1.2,-2.3 -2.4,-2.4 -0.1,0 -0.1,-0.4 0,-0.4 0.5,0.1 1.4,0.1 2,0.1 0.9,0 2,0 2.6,-0.1 0.1,0 0.1,0.4 0,0.4 -0.7,0.1 -1.1,0.1 -1.1,0.5 0,0.3 0.1,0.8 0.5,1.8 l 2.2,5 2.2,-5 c 0.5,-1.1 0.6,-1.4 0.6,-1.8 0,-0.3 -0.3,-0.5 -1,-0.5 -0.1,0 -0.1,-0.4 0,-0.4 0.5,0.1 1.1,0.1 1.8,0.1 0.9,0 1.1,0 1.7,-0.1 0.1,0 0.1,0.4 0,0.4 -1,0.1 -1.5,0.6 -2.3,2.4 z m 16.3,-0.1 c -0.6,0 -1.5,-0.1 -2.7,-0.1 -1.6,0 -3.4,0 -4.6,0.1 -0.1,0 -0.1,-0.4 0,-0.4 1.6,-0.2 1.7,-0.4 1.7,-2.3 v -4.6 c 0,-1.9 -0.1,-2.2 -1.7,-2.3 -0.1,0 -0.1,-0.4 0,-0.4 1.1,0.1 2.9,0.1 4.5,0.1 1.1,0 2.2,0 3.1,-0.1 -0.1,0.3 -0.1,0.8 -0.1,1.1 V 88 c 0,0 -0.4,0.1 -0.4,0 -0.1,-0.7 -0.4,-1 -2.3,-1 h -1.3 c -0.1,0.3 -0.1,0.9 -0.1,1.9 v 1.9 h 1 c 1.7,0 1.8,0 2,-0.7 0,0 0.4,-0.1 0.4,0 -0.1,0.2 -0.1,0.9 -0.1,1.2 v 0.9 h -0.4 c -0.1,-0.8 -0.3,-0.9 -1.9,-0.9 h -1 v 2 c 0,2 0.1,2.1 0.8,2.1 h 0.8 c 2.3,0 2.4,-0.3 2.6,-1.3 h 0.4 c -0.1,0.4 -0.2,1.4 -0.3,1.7 0,0.4 -0.1,0.4 -0.4,0.4 z m 8.7,-4.4 h -0.6 v 1.7 c 0,1.8 0.1,2.2 1.5,2.3 0.1,0 0.1,0.4 0,0.4 -0.5,-0.1 -1.5,-0.1 -2.2,-0.1 -0.9,0 -1.9,0 -2.6,0.1 -0.1,0 -0.1,-0.4 0,-0.4 1.3,-0.1 1.6,-0.4 1.6,-2.3 v -4.6 c 0,-1.8 -0.3,-2.2 -1,-2.2 -0.2,0 -0.3,0 -0.6,0.1 -0.1,0 -0.2,-0.3 -0.1,-0.4 0.7,-0.2 2.5,-0.3 4.1,-0.3 2.8,0 4.2,0.9 4.2,2.5 0,1 -0.7,2 -1.9,2.5 0.8,2.1 2.8,4.9 4.5,4.9 0.1,0 0.1,0.4 0,0.4 -3.3,0 -5.2,-2.4 -5.9,-4.8 -0.2,0.2 -0.7,0.2 -1,0.2 z m -0.5,-5 c -0.1,0.3 -0.1,0.9 -0.1,2 v 2.4 h 0.6 c 2,0 2.8,-0.8 2.8,-2.2 0,-1.7 -1,-2.3 -2.8,-2.3 -0.2,0 -0.3,0.1 -0.5,0.1 z m 10.9,8.5 c -0.1,-0.1 0,-1.2 0,-2.3 0,-0.1 0.4,-0.1 0.4,0 0.1,1.6 0.9,2.8 2.5,2.8 1.100001,0 1.900001,-0.7 1.900001,-1.6 0,-2.6 -4.500001,-2.6 -4.500001,-5.3 0,-1.4 1.3,-2.9 3.1,-2.9 0.900001,0 1.500001,0.3 2.000001,0.6 0.1,0.1 0.3,0.9 0.3,2 0,0.1 -0.4,0.1 -0.4,0 -0.2,-1.1 -0.9,-1.9 -2.000001,-1.9 -1,0 -1.7,0.5 -1.7,1.4 0,2.4 4.400001,2.4 4.400001,5.3 0,1.7 -1.3,3.1 -3.200001,3.1 -1.2,0 -2,-0.5 -2.8,-1.2 z m 13.700001,0.9 c -0.9,0 -1.9,0 -2.6,0.1 -0.2,0 -0.1,-0.4 0,-0.4 1.3,-0.1 1.6,-0.4 1.6,-2.3 V 89 c 0,-1.9 -0.2,-2.2 -1.6,-2.3 0,0 -0.1,-0.4 0,-0.4 0.6,0.1 1.6,0.1 2.5,0.1 0.6,0 1.7,0 2.1,-0.1 0.2,0 0.1,0.4 0,0.4 -1.4,0.1 -1.6,0.5 -1.6,2.3 v 4.6 c 0,1.8 0.1,2.2 1.6,2.3 0,0 0.1,0.4 0,0.4 -0.3,-0.1 -1.4,-0.1 -2,-0.1 z m 16.9,-8 c 0,0.1 -0.4,0 -0.4,0 -0.1,-0.7 -0.7,-1.1 -2.3,-1.1 h -1.3 v 6.5 c 0,1.8 0.1,2.2 1.6,2.3 0.1,0 0.1,0.4 -0.1,0.4 -0.5,-0.1 -1.5,-0.1 -2.2,-0.1 -0.9,0 -1.9,0 -2.5,0.1 -0.2,0 -0.1,-0.4 0,-0.4 1.3,-0.1 1.6,-0.4 1.6,-2.3 v -6.5 h -1.4 c -1.6,0 -2.2,0.4 -2.4,1.2 h -0.4 c 0.1,-0.3 0.1,-1.1 0.1,-1.5 0,-0.2 0,-0.5 -0.1,-0.8 0,-0.1 0.3,-0.1 0.4,0 0.1,0.5 0.2,0.5 2.4,0.5 h 4.4 c 2.2,0 2.3,0 2.4,-0.5 0,-0.1 0.4,0 0.4,0 -0.1,0.3 -0.1,0.9 -0.1,1.4 -0.1,0.1 -0.1,0.6 -0.1,0.8 z m 14.6,-1.6 c -2.5,0 -4.3,3.1 -4.3,6.5 v 0.4 c 0,1.8 0.1,2.2 1.5,2.3 0.1,0 0.1,0.4 0,0.4 -0.5,-0.1 -1.5,-0.1 -2.2,-0.1 -0.9,0 -1.9,0 -2.6,0.1 -0.2,0 -0.1,-0.4 0,-0.4 1.3,-0.1 1.6,-0.4 1.6,-2.3 v -0.4 c 0,-3.7 -2,-6.5 -4.4,-6.5 -0.2,0 -0.4,0 -0.6,0.1 0,0 -0.1,-0.3 0,-0.4 0.5,-0.2 1.1,-0.3 1.6,-0.3 2.3,0 4.1,1.8 4.8,4 0.9,-2.6 2.6,-3.9 4.4,-3.9 0.3,0 0.7,0.1 1,0.2 0.1,0 0,0.4 -0.1,0.4 -0.3,0 -0.5,-0.1 -0.7,-0.1 z"
     id="path6266"
     inkscape:connector-curvature="0"
     style="fill:#ffffff" />
</svg>
