<?xml version="1.0" encoding="UTF-8" standalone="no"?>
<svg
   xmlns:dc="http://purl.org/dc/elements/1.1/"
   xmlns:cc="http://creativecommons.org/ns#"
   xmlns:rdf="http://www.w3.org/1999/02/22-rdf-syntax-ns#"
   xmlns:svg="http://www.w3.org/2000/svg"
   xmlns="http://www.w3.org/2000/svg"
   viewBox="0 0 230 152"
   height="152"
   width="230"
   xml:space="preserve"
   id="svg2"
   version="1.1"><metadata
     id="metadata8"><rdf:RDF><cc:Work
         rdf:about=""><dc:format>image/svg+xml</dc:format><dc:type
           rdf:resource="http://purl.org/dc/dcmitype/StillImage" /><dc:title></dc:title></cc:Work></rdf:RDF></metadata><g
     transform="matrix(1.3333333,0,0,-1.3333333,0,152)"
     id="g10"><g
       id="g12"><g
         id="g14"><g
           transform="translate(21.2021,99.7505)"
           id="g20"><path
             id="path22"
             style="fill:#ffffff;fill-opacity:1;fill-rule:nonzero;stroke:none"
             d="m 0,0 c -0.167,2.36 -2.7,3.941 -5.237,3.941 -6.103,0 -7.233,-5.586 -7.233,-9.94 0,-5.105 1.538,-9.933 6.919,-9.933 2.644,0 5.039,1.301 5.452,3.937 h 3.597 c -0.345,-4.144 -4.523,-6.887 -9.355,-6.887 -7.297,0 -10.212,5.965 -10.212,12.883 0,6.064 2.674,13.123 10.965,12.886 C -0.339,6.749 3.222,4.415 3.601,0 Z" /></g><g
           transform="translate(38.8804,92.0068)"
           id="g24"><path
             id="path26"
             style="fill:#ffffff;fill-opacity:1;fill-rule:nonzero;stroke:none"
             d="m 0,0 c 0,2.98 -0.172,4.729 -3.632,4.729 -1.644,0 -3.182,-0.961 -3.225,-2.744 h -3.417 c 0.168,3.769 3.114,5.104 6.504,5.104 3.532,0 7.024,-1.059 7.024,-5.857 v -8.223 c 0,-0.753 0.036,-2.193 0.139,-3.631 H 1.202 c -0.311,0 -0.897,-0.176 -0.928,0.237 -0.065,0.789 -0.137,1.547 -0.172,2.335 H 0.034 c -1.06,-2.163 -2.98,-3.085 -5.342,-3.085 -2.98,0 -6,1.539 -6,4.898 0,4.829 4.283,6.237 8.362,6.237 z m -3.257,-2.262 c -1.986,-0.103 -4.626,-0.822 -4.626,-3.325 0,-2.127 1.477,-3.186 3.394,-3.186 3.839,0 4.561,3.324 4.489,6.511 z" /></g><g
           transform="translate(47.4126,95.4995)"
           id="g28"><path
             id="path30"
             style="fill:#ffffff;fill-opacity:1;fill-rule:nonzero;stroke:none"
             d="M 0,0 C -0.031,1.029 -0.104,2.055 -0.172,3.084 H 3.153 L 3.256,0.345 h 0.065 c 0.998,2.464 3.156,3.252 5.862,3.252 4.832,0 7.231,-4.457 7.231,-9.115 0,-4.418 -2.058,-9.109 -8.258,-9.109 -1.408,0 -3.673,0.681 -4.801,2.464 H 3.256 v -8.532 H 0 Z m 8.118,1.236 c -3.7,0 -4.862,-3.634 -4.862,-6.754 0,-3.217 0.926,-6.748 4.556,-6.748 3.972,0 5.174,3.531 5.174,6.748 0,3.223 -0.957,6.754 -4.868,6.754" /></g><g
           transform="translate(70.2622,89.3662)"
           id="g32"><path
             id="path34"
             style="fill:#ffffff;fill-opacity:1;fill-rule:nonzero;stroke:none"
             d="m 0,0 c -0.237,-3.015 0.994,-6.129 4.319,-6.129 2.537,0 3.804,0.986 4.178,3.493 h 3.424 c -0.508,-3.907 -3.527,-5.861 -7.64,-5.861 -5.518,0 -7.706,3.906 -7.706,8.979 0,5.036 2.537,9.252 7.982,9.252 5.142,-0.103 7.571,-3.36 7.571,-8.123 V 0 Z M 8.701,2.262 C 8.773,5.142 7.468,7.365 4.319,7.365 1.61,7.365 0,5.07 0,2.262 Z" /></g><g
           transform="translate(5.1357,47.5078)"
           id="g36"><path
             id="path38"
             style="fill:#ffffff;fill-opacity:1;fill-rule:nonzero;stroke:none"
             d="m 0,0 v 24.74 h 8.839 c 4.247,0 7.985,-1.641 7.985,-6.443 0,-2.567 -1.747,-4.66 -4.182,-5.341 v -0.069 c 3.184,-0.482 4.931,-3.325 4.931,-6.409 0,-2.881 -1.881,-5.039 -4.487,-5.996 C 11.819,0 10.312,-0.03 8.839,0 Z m 3.43,14.325 h 4.247 c 3.247,-0.107 5.548,0.479 5.548,3.735 0,3.252 -2.301,3.834 -5.548,3.734 H 3.43 Z m 0,-11.379 h 5.716 c 2.639,0 4.832,1.171 4.832,4.217 0,3.049 -2.193,4.213 -4.832,4.213 H 3.43 Z" /></g><g
           transform="translate(30.8643,47.5078)"
           id="g40"><path
             id="path42"
             style="fill:#ffffff;fill-opacity:1;fill-rule:nonzero;stroke:none"
             d="M 0,0 H -3.256 V 17.203 H 0 v -3.322 h 0.065 c 0.482,2.362 2.678,3.559 5.039,3.559 0.413,0 0.757,-0.03 1.132,-0.03 V 14.325 C 5.792,14.494 5.276,14.494 4.832,14.494 0.715,14.356 0,12.167 0,8.532 Z" /></g><g
           transform="translate(42.6143,55.4932)"
           id="g44"><path
             id="path46"
             style="fill:#ffffff;fill-opacity:1;fill-rule:nonzero;stroke:none"
             d="m 0,0 c -0.242,-3.019 0.991,-6.133 4.316,-6.133 2.536,0 3.806,0.994 4.182,3.497 h 3.424 c -0.513,-3.906 -3.529,-5.862 -7.641,-5.862 -5.517,0 -7.71,3.907 -7.71,8.98 0,5.035 2.537,9.248 7.986,9.248 5.139,-0.099 7.567,-3.356 7.567,-8.119 V 0 Z M 8.704,2.261 C 8.772,5.138 7.469,7.366 4.316,7.366 1.61,7.366 0,5.07 0,2.261 Z" /></g><g
           transform="translate(59.4341,64.7104)"
           id="g48"><path
             id="path50"
             style="fill:#ffffff;fill-opacity:1;fill-rule:nonzero;stroke:none"
             d="M 0,0 V 3.666 L 3.252,4.695 V 0 l 3.979,0.1 v -2.433 l -3.979,0.038 v -11.1 c 0,-1.236 0.96,-1.817 2.127,-1.817 0.512,0 1.202,0.068 1.714,0.206 v -2.503 c -0.754,-0.03 -1.473,-0.206 -2.231,-0.206 -0.783,0 -1.4,0.038 -2.189,0.176 -0.511,0.1 -1.372,0.374 -1.92,1.124 C 0.172,-15.588 0,-15.519 0,-13.224 V -2.295 L -2.946,-2.333 V 0.1 Z" /></g><g
           transform="translate(86.2979,56.1094)"
           id="g52"><path
             id="path54"
             style="fill:#ffffff;fill-opacity:1;fill-rule:nonzero;stroke:none"
             d="m 0,0 c 0,-5.341 -2.913,-9.114 -8.568,-9.114 -5.655,0 -8.562,3.773 -8.562,9.114 0,5.349 2.907,9.114 8.562,9.114 C -2.913,9.114 0,5.349 0,0 m -8.568,-6.75 c 3.873,0 5.139,3.085 5.139,6.75 0,3.665 -1.266,6.749 -5.139,6.749 -3.872,0 -5.138,-3.084 -5.138,-6.749 0,-3.665 1.266,-6.75 5.138,-6.75" /></g><g
           transform="translate(94.1416,62.1777)"
           id="g56"><path
             id="path58"
             style="fill:#ffffff;fill-opacity:1;fill-rule:nonzero;stroke:none"
             d="m 0,0 h 0.065 c 1.097,2.158 3.496,3.049 5.211,3.049 1.198,0 6.508,-0.309 6.508,-5.827 V -14.67 H 8.532 v 10.832 c 0,2.843 -1.201,4.381 -3.941,4.381 0,0 -1.783,0.103 -3.157,-1.262 C 0.956,-1.201 0.065,-1.951 0.065,-5.311 V -14.67 H -3.188 V 2.533 H 0 Z" /></g><g
           transform="translate(25.0786,22.0029)"
           id="g60"><path
             id="path62"
             style="fill:#ffffff;fill-opacity:1;fill-rule:nonzero;stroke:none"
             d="m 0,0 c 0.104,-6.375 -3.256,-10.315 -9.967,-10.315 -6.719,0 -10.078,3.94 -9.976,10.315 v 14.938 h 3.43 V -0.826 c 0.099,-4.248 2.635,-6.543 6.546,-6.543 3.902,0 6.438,2.295 6.539,6.543 V 14.938 H 0 Z" /></g><g
           transform="translate(34.3618,26.8652)"
           id="g64"><path
             id="path66"
             style="fill:#ffffff;fill-opacity:1;fill-rule:nonzero;stroke:none"
             d="m 0,0 h 0.068 c 1.099,2.158 3.497,3.05 5.208,3.05 1.201,0 6.512,-0.306 6.512,-5.823 V -14.666 H 8.531 v 10.829 c 0,2.847 -1.196,4.385 -3.941,4.385 0,0 -1.779,0.103 -3.148,-1.263 C 0.958,-1.197 0.068,-1.95 0.068,-5.307 v -9.359 H -3.188 V 2.537 H 0 Z" /></g><path
           id="path68"
           style="fill:#ffffff;fill-opacity:1;fill-rule:nonzero;stroke:none"
           d="m 51.563,33.412 h 3.868 v 3.528 h -3.868 z m 0.306,-21.213 h 3.256 v 17.199 h -3.256 z" /><g
           transform="translate(66.3276,12.1992)"
           id="g70"><path
             id="path72"
             style="fill:#ffffff;fill-opacity:1;fill-rule:nonzero;stroke:none"
             d="m 0,0 -7.196,17.203 h 3.601 l 5.474,-13.64 5.35,13.64 h 3.562 L 3.253,0 Z" /></g><g
           transform="translate(82.4634,20.1855)"
           id="g74"><path
             id="path76"
             style="fill:#ffffff;fill-opacity:1;fill-rule:nonzero;stroke:none"
             d="m 0,0 c -0.245,-3.02 0.991,-6.134 4.316,-6.134 2.541,0 3.804,0.995 4.183,3.498 h 3.424 c -0.518,-3.911 -3.527,-5.862 -7.642,-5.862 -5.516,0 -7.709,3.902 -7.709,8.977 0,5.035 2.536,9.251 7.985,9.251 5.139,-0.1 7.572,-3.356 7.572,-8.119 L 12.129,0 Z M 8.705,2.262 C 8.77,5.139 7.469,7.365 4.316,7.365 1.608,7.365 0,5.069 0,2.262 Z" /></g><g
           transform="translate(102.4365,12.1992)"
           id="g78"><path
             id="path80"
             style="fill:#ffffff;fill-opacity:1;fill-rule:nonzero;stroke:none"
             d="M 0,0 H -3.256 V 17.203 H 0 v -3.32 h 0.065 c 0.482,2.356 2.678,3.558 5.039,3.558 0.413,0 0.757,-0.031 1.128,-0.031 V 14.326 C 5.788,14.495 5.276,14.495 4.828,14.495 0.715,14.356 0,12.168 0,8.533 Z" /></g><g
           transform="translate(118.2295,29.915)"
           id="g82"><path
             id="path84"
             style="fill:#ffffff;fill-opacity:1;fill-rule:nonzero;stroke:none"
             d="M 0,0 C 3.254,0 6.923,-1.369 6.678,-5.276 H 3.254 c 0.137,2.193 -1.543,2.912 -3.425,2.912 -1.749,0 -3.152,-0.826 -3.152,-2.74 0,-1.92 2.944,-2.058 4.181,-2.433 2.912,-0.96 6.268,-1.301 6.268,-5.174 0,-4.216 -4.11,-5.517 -7.642,-5.517 -3.6,0 -6.608,1.646 -6.577,5.621 h 3.425 c 0.069,-2.123 1.507,-3.256 3.497,-3.256 1.916,0 3.871,0.751 3.871,2.984 0,3.834 -10.452,0.953 -10.452,7.668 C -6.752,-1.606 -3.121,0 0,0" /></g><path
           id="path86"
           style="fill:#ffffff;fill-opacity:1;fill-rule:nonzero;stroke:none"
           d="m 129.33,33.412 h 3.872 v 3.528 h -3.872 z m 0.307,-21.213 h 3.26 v 17.199 h -3.26 z" /><g
           transform="translate(138.9219,29.4023)"
           id="g88"><path
             id="path90"
             style="fill:#ffffff;fill-opacity:1;fill-rule:nonzero;stroke:none"
             d="M 0,0 V 3.666 L 3.252,4.691 V 0 l 3.976,0.1 v -2.434 l -3.976,0.038 v -11.102 c 0,-1.233 0.962,-1.814 2.124,-1.814 0.518,0 1.206,0.067 1.718,0.206 v -2.502 c -0.757,-0.031 -1.477,-0.207 -2.23,-0.207 -0.789,0 -1.401,0.038 -2.188,0.176 -0.518,0.101 -1.379,0.376 -1.926,1.125 C 0.173,-15.591 0,-15.518 0,-13.223 V -2.296 L -2.95,-2.334 V 0.1 Z" /></g><g
           transform="translate(155.1953,5.623)"
           id="g92"><path
             id="path94"
             style="fill:#ffffff;fill-opacity:1;fill-rule:nonzero;stroke:none"
             d="m 0,0 h -3.325 l 2.605,6.646 -7.162,17.133 h 3.631 L 1.128,10.212 6.615,23.779 h 3.493 z" /></g></g></g></g></svg>