<?xml version="1.0" encoding="UTF-8" standalone="no"?>
<!-- Created with Inkscape (http://www.inkscape.org/) -->

<!--    viewBox="0 0 55.667908 4.8269186" -->

<svg
   xmlns:dc="http://purl.org/dc/elements/1.1/"
   xmlns:cc="http://creativecommons.org/ns#"
   xmlns:rdf="http://www.w3.org/1999/02/22-rdf-syntax-ns#"
   xmlns:svg="http://www.w3.org/2000/svg"
   xmlns="http://www.w3.org/2000/svg"
   xmlns:sodipodi="http://sodipodi.sourceforge.net/DTD/sodipodi-0.dtd"
   xmlns:inkscape="http://www.inkscape.org/namespaces/inkscape"
   viewBox="-4 -4 36.201891 4.8269181"
   width="33.588058mm"
   height="2.9123926mm"
   version="1.1"
   id="svg4815"
   inkscape:version="0.92.1 r15371"
   sodipodi:docname="library-logo.svg">
  <defs
     id="defs4809">
    <clipPath
       id="clipPath4833"
       clipPathUnits="userSpaceOnUse">
      <path
         inkscape:connector-curvature="0"
         id="path4831"
         d="M 0,25 H 168 V 0 H 0 Z" />
    </clipPath>
  </defs>
  <sodipodi:namedview
     id="base"
     pagecolor="#ffffff"
     bordercolor="#666666"
     borderopacity="1.0"
     inkscape:pageopacity="0.0"
     inkscape:pageshadow="2"
     inkscape:zoom="2.8"
     inkscape:cx="-29.944351"
     inkscape:cy="90.321424"
     inkscape:document-units="mm"
     inkscape:current-layer="layer1"
     showgrid="false"
     inkscape:pagecheckerboard="true"
     fit-margin-top="0"
     fit-margin-left="0"
     fit-margin-right="0"
     fit-margin-bottom="0"
     inkscape:window-width="1920"
     inkscape:window-height="1017"
     inkscape:window-x="-8"
     inkscape:window-y="-8"
     inkscape:window-maximized="1" />
  <metadata
     id="metadata4812">
    <rdf:RDF>
      <cc:Work
         rdf:about="">
        <dc:format>image/svg+xml</dc:format>
        <dc:type
           rdf:resource="http://purl.org/dc/dcmitype/StillImage" />
        <dc:title></dc:title>
      </cc:Work>
    </rdf:RDF>
  </metadata>
  <g
     inkscape:label="Layer 1"
     inkscape:groupmode="layer"
     id="layer1"
     transform="translate(-472.32702,-312.94963)">
    <g
       transform="matrix(0.35277777,0,0,-0.35277777,450.1371,315.42092)"
       inkscape:label="cbu words only landscape white"
       id="g4825">
      <g
         id="g4827">
        <g
           clip-path="url(#clipPath4833)"
           id="g4829">
          <g
             transform="translate(12.7407,15.3813)"
             id="g4835">
            <path
               inkscape:connector-curvature="0"
               id="path4837"
               style="fill:#ffffff;fill-opacity:1;fill-rule:nonzero;stroke:none"
               d="m 0,0 c -0.074,1.017 -1.164,1.692 -2.252,1.692 -2.621,0 -3.107,-2.399 -3.107,-4.268 0,-2.195 0.662,-4.27 2.974,-4.27 1.134,0 2.165,0.559 2.343,1.691 h 1.544 c -0.147,-1.782 -1.943,-2.959 -4.019,-2.959 -3.138,0 -4.388,2.56 -4.388,5.538 0,2.604 1.149,5.638 4.711,5.536 C -0.147,2.9 1.385,1.899 1.547,0 Z" />
          </g>
          <g
             transform="translate(20.3384,12.0532)"
             id="g4839">
            <path
               inkscape:connector-curvature="0"
               id="path4841"
               style="fill:#ffffff;fill-opacity:1;fill-rule:nonzero;stroke:none"
               d="m 0,0 c 0,1.282 -0.074,2.032 -1.562,2.032 -0.707,0 -1.369,-0.413 -1.383,-1.179 h -1.472 c 0.073,1.62 1.339,2.194 2.798,2.194 1.515,0 3.017,-0.455 3.017,-2.516 v -3.534 c 0,-0.324 0.015,-0.944 0.06,-1.562 H 0.515 c -0.133,0 -0.384,-0.075 -0.397,0.103 -0.03,0.338 -0.061,0.663 -0.074,1.002 h -0.03 c -0.457,-0.928 -1.281,-1.326 -2.297,-1.326 -1.281,0 -2.576,0.662 -2.576,2.106 0,2.076 1.84,2.68 3.592,2.68 z m -1.399,-0.972 c -0.855,-0.044 -1.989,-0.354 -1.989,-1.428 0,-0.912 0.634,-1.37 1.458,-1.37 1.65,0 1.96,1.429 1.93,2.798 z" />
          </g>
          <g
             transform="translate(24.0034,13.5552)"
             id="g4843">
            <path
               inkscape:connector-curvature="0"
               id="path4845"
               style="fill:#ffffff;fill-opacity:1;fill-rule:nonzero;stroke:none"
               d="M 0,0 C -0.014,0.442 -0.043,0.883 -0.074,1.326 H 1.355 L 1.399,0.147 h 0.029 c 0.427,1.06 1.355,1.399 2.518,1.399 2.077,0 3.107,-1.915 3.107,-3.918 0,-1.898 -0.883,-3.916 -3.549,-3.916 -0.603,0 -1.576,0.296 -2.062,1.06 H 1.399 V -8.894 H 0 Z m 3.49,0.53 c -1.59,0 -2.091,-1.561 -2.091,-2.902 0,-1.383 0.398,-2.899 1.958,-2.899 1.708,0 2.224,1.516 2.224,2.899 0,1.385 -0.412,2.902 -2.091,2.902" />
          </g>
          <g
             transform="translate(33.8242,10.9189)"
             id="g4847">
            <path
               inkscape:connector-curvature="0"
               id="path4849"
               style="fill:#ffffff;fill-opacity:1;fill-rule:nonzero;stroke:none"
               d="m 0,0 c -0.104,-1.296 0.426,-2.636 1.854,-2.636 1.091,0 1.635,0.428 1.796,1.503 h 1.473 c -0.221,-1.68 -1.516,-2.518 -3.282,-2.518 -2.372,0 -3.315,1.677 -3.315,3.858 0,2.163 1.091,3.974 3.432,3.974 C 4.167,4.137 5.211,2.739 5.211,0.692 V 0 Z M 3.739,0.972 C 3.769,2.21 3.209,3.165 1.854,3.165 0.691,3.165 0,2.179 0,0.972 Z" />
          </g>
          <g
             transform="translate(44.9971,7.4897)"
             id="g4851">
            <path
               inkscape:connector-curvature="0"
               id="path4853"
               style="fill:#ffffff;fill-opacity:1;fill-rule:nonzero;stroke:none"
               d="m 0,0 v 10.629 h 3.799 c 1.825,0 3.43,-0.706 3.43,-2.767 0,-1.106 -0.75,-2.002 -1.795,-2.297 V 5.536 C 6.804,5.329 7.555,4.107 7.555,2.782 7.555,1.545 6.744,0.618 5.624,0.205 5.082,0 4.432,-0.016 3.799,0 Z M 1.474,6.154 H 3.299 C 4.698,6.11 5.685,6.36 5.685,7.759 5.685,9.156 4.698,9.408 3.299,9.363 H 1.474 Z m 0,-4.888 h 2.459 c 1.133,0 2.075,0.501 2.075,1.81 0,1.311 -0.942,1.811 -2.075,1.811 H 1.474 Z" />
          </g>
          <g
             transform="translate(56.0542,7.4897)"
             id="g4855">
            <path
               inkscape:connector-curvature="0"
               id="path4857"
               style="fill:#ffffff;fill-opacity:1;fill-rule:nonzero;stroke:none"
               d="M 0,0 H -1.399 V 7.39 H 0 V 5.962 H 0.031 C 0.236,6.979 1.179,7.493 2.195,7.493 2.372,7.493 2.52,7.48 2.681,7.48 V 6.154 C 2.489,6.227 2.269,6.227 2.076,6.227 0.309,6.167 0,5.225 0,3.666 Z" />
          </g>
          <g
             transform="translate(61.1035,10.9189)"
             id="g4859">
            <path
               inkscape:connector-curvature="0"
               id="path4861"
               style="fill:#ffffff;fill-opacity:1;fill-rule:nonzero;stroke:none"
               d="m 0,0 c -0.101,-1.296 0.428,-2.636 1.856,-2.636 1.091,0 1.635,0.428 1.797,1.503 h 1.472 c -0.22,-1.68 -1.518,-2.518 -3.285,-2.518 -2.37,0 -3.313,1.677 -3.313,3.858 0,2.163 1.091,3.974 3.432,3.974 C 4.167,4.137 5.211,2.739 5.211,0.692 V 0 Z M 3.742,0.972 C 3.771,2.21 3.212,3.165 1.856,3.165 0.695,3.165 0,2.179 0,0.972 Z" />
          </g>
          <g
             transform="translate(68.333,14.8799)"
             id="g4863">
            <path
               inkscape:connector-curvature="0"
               id="path4865"
               style="fill:#ffffff;fill-opacity:1;fill-rule:nonzero;stroke:none"
               d="M 0,0 V 1.577 L 1.399,2.018 V 0 l 1.709,0.044 v -1.045 l -1.709,0.015 v -4.771 c 0,-0.53 0.412,-0.781 0.913,-0.781 0.22,0 0.515,0.03 0.735,0.088 V -7.523 C 2.725,-7.539 2.415,-7.612 2.091,-7.612 1.752,-7.612 1.488,-7.597 1.148,-7.539 0.927,-7.496 0.56,-7.376 0.324,-7.052 0.074,-6.699 0,-6.671 0,-5.683 v 4.697 l -1.267,-0.015 v 1.045 z" />
          </g>
          <g
             transform="translate(79.877,11.1851)"
             id="g4867">
            <path
               inkscape:connector-curvature="0"
               id="path4869"
               style="fill:#ffffff;fill-opacity:1;fill-rule:nonzero;stroke:none"
               d="m 0,0 c 0,-2.298 -1.253,-3.918 -3.681,-3.918 -2.431,0 -3.682,1.62 -3.682,3.918 0,2.296 1.251,3.915 3.682,3.915 C -1.253,3.915 0,2.296 0,0 m -3.681,-2.901 c 1.663,0 2.208,1.325 2.208,2.901 0,1.575 -0.545,2.9 -2.208,2.9 -1.665,0 -2.21,-1.325 -2.21,-2.9 0,-1.576 0.545,-2.901 2.21,-2.901" />
          </g>
          <g
             transform="translate(83.248,13.791)"
             id="g4871">
            <path
               inkscape:connector-curvature="0"
               id="path4873"
               style="fill:#ffffff;fill-opacity:1;fill-rule:nonzero;stroke:none"
               d="m 0,0 h 0.027 c 0.472,0.928 1.504,1.31 2.24,1.31 0.515,0 2.797,-0.132 2.797,-2.503 V -6.301 H 3.666 v 4.652 c 0,1.222 -0.515,1.885 -1.693,1.885 0,0 -0.766,0.041 -1.355,-0.547 C 0.41,-0.517 0.027,-0.84 0.027,-2.282 V -6.301 H -1.371 V 1.09 H 0 Z" />
          </g>
          <g
             transform="translate(103.3745,11.6997)"
             id="g4875">
            <path
               inkscape:connector-curvature="0"
               id="path4877"
               style="fill:#ffffff;fill-opacity:1;fill-rule:nonzero;stroke:none"
               d="m 0,0 c 0.044,-2.738 -1.399,-4.432 -4.284,-4.432 -2.887,0 -4.329,1.694 -4.286,4.432 v 6.42 h 1.474 v -6.772 c 0.044,-1.827 1.132,-2.813 2.812,-2.813 1.678,0 2.766,0.986 2.811,2.813 V 6.42 H 0 Z" />
          </g>
          <g
             transform="translate(107.3608,13.791)"
             id="g4879">
            <path
               inkscape:connector-curvature="0"
               id="path4881"
               style="fill:#ffffff;fill-opacity:1;fill-rule:nonzero;stroke:none"
               d="m 0,0 h 0.031 c 0.472,0.928 1.503,1.31 2.238,1.31 0.517,0 2.8,-0.132 2.8,-2.503 v -5.108 h -1.4 v 4.652 c 0,1.222 -0.516,1.885 -1.693,1.885 0,0 -0.766,0.041 -1.354,-0.547 C 0.414,-0.517 0.031,-0.84 0.031,-2.282 V -6.301 H -1.367 V 1.09 H 0 Z" />
          </g>
          <path
             inkscape:connector-curvature="0"
             id="path4883"
             style="fill:#ffffff;fill-opacity:1;fill-rule:nonzero;stroke:none"
             d="m 114.753,18.12 h 1.665 v -1.517 h -1.665 z m 0.134,-3.239 h 1.4 V 7.49 h -1.4 z" />
          <g
             transform="translate(121.1001,7.4897)"
             id="g4885">
            <path
               inkscape:connector-curvature="0"
               id="path4887"
               style="fill:#ffffff;fill-opacity:1;fill-rule:nonzero;stroke:none"
               d="m 0,0 -3.092,7.39 h 1.546 L 0.809,1.528 3.108,7.39 h 1.53 L 1.398,0 Z" />
          </g>
          <g
             transform="translate(128.0327,10.9189)"
             id="g4889">
            <path
               inkscape:connector-curvature="0"
               id="path4891"
               style="fill:#ffffff;fill-opacity:1;fill-rule:nonzero;stroke:none"
               d="m 0,0 c -0.101,-1.296 0.427,-2.636 1.856,-2.636 1.09,0 1.634,0.428 1.795,1.503 h 1.474 c -0.22,-1.68 -1.517,-2.518 -3.284,-2.518 -2.37,0 -3.313,1.677 -3.313,3.858 0,2.163 1.091,3.974 3.432,3.974 C 4.167,4.137 5.215,2.739 5.215,0.692 V 0 Z M 3.742,0.972 C 3.773,2.21 3.21,3.165 1.856,3.165 0.694,3.165 0,2.179 0,0.972 Z" />
          </g>
          <g
             transform="translate(136.6162,7.4897)"
             id="g4893">
            <path
               inkscape:connector-curvature="0"
               id="path4895"
               style="fill:#ffffff;fill-opacity:1;fill-rule:nonzero;stroke:none"
               d="M 0,0 H -1.397 V 7.39 H 0 V 5.962 H 0.032 C 0.236,6.979 1.179,7.493 2.195,7.493 2.372,7.493 2.518,7.48 2.682,7.48 V 6.154 C 2.49,6.227 2.268,6.227 2.077,6.227 0.309,6.167 0,5.225 0,3.666 Z" />
          </g>
          <g
             transform="translate(143.4033,15.1011)"
             id="g4897">
            <path
               inkscape:connector-curvature="0"
               id="path4899"
               style="fill:#ffffff;fill-opacity:1;fill-rule:nonzero;stroke:none"
               d="M 0,0 C 1.399,0 2.976,-0.589 2.873,-2.267 H 1.399 c 0.059,0.942 -0.661,1.249 -1.471,1.249 -0.752,0 -1.355,-0.352 -1.355,-1.177 0,-0.824 1.265,-0.882 1.796,-1.044 1.252,-0.415 2.695,-0.56 2.695,-2.224 0,-1.81 -1.767,-2.371 -3.284,-2.371 -1.546,0 -2.843,0.708 -2.826,2.415 h 1.471 c 0.03,-0.913 0.649,-1.398 1.503,-1.398 0.823,0 1.663,0.323 1.663,1.28 0,1.649 -4.49,0.413 -4.49,3.298 C -2.899,-0.691 -1.34,0 0,0" />
          </g>
          <path
             inkscape:connector-curvature="0"
             id="path4901"
             style="fill:#ffffff;fill-opacity:1;fill-rule:nonzero;stroke:none"
             d="m 148.175,18.12 h 1.664 v -1.517 h -1.664 z m 0.132,-3.239 h 1.399 V 7.49 h -1.399 z" />
          <g
             transform="translate(152.2988,14.8799)"
             id="g4903">
            <path
               inkscape:connector-curvature="0"
               id="path4905"
               style="fill:#ffffff;fill-opacity:1;fill-rule:nonzero;stroke:none"
               d="M 0,0 V 1.577 L 1.397,2.018 V 0 l 1.708,0.044 v -1.045 l -1.708,0.015 v -4.771 c 0,-0.53 0.412,-0.781 0.913,-0.781 0.221,0 0.515,0.03 0.737,0.088 V -7.523 C 2.723,-7.539 2.413,-7.612 2.088,-7.612 1.749,-7.612 1.485,-7.597 1.146,-7.539 0.925,-7.496 0.558,-7.376 0.322,-7.052 0.074,-6.699 0,-6.671 0,-5.683 v 4.697 l -1.269,-0.015 v 1.045 z" />
          </g>
          <g
             transform="translate(159.2905,4.6616)"
             id="g4907">
            <path
               inkscape:connector-curvature="0"
               id="path4909"
               style="fill:#ffffff;fill-opacity:1;fill-rule:nonzero;stroke:none"
               d="m 0,0 h -1.429 l 1.12,2.856 -3.077,7.361 h 1.558 l 2.314,-5.829 2.355,5.829 h 1.503 z" />
          </g>
        </g>
      </g>
    </g>
  </g>
</svg>
